<?xml version="1.0" encoding="UTF-8" standalone="no"?><svg xmlns="http://www.w3.org/2000/svg" xmlns:xlink="http://www.w3.org/1999/xlink" contentScriptType="application/ecmascript" contentStyleType="text/css" height="773px" preserveAspectRatio="none" style="width:2642px;height:773px;" version="1.1" viewBox="0 0 2642 773" width="2642px" zoomAndPan="magnify"><defs><filter height="300%" id="f81fa1sxlcpbo" width="300%" x="-1" y="-1"><feGaussianBlur result="blurOut" stdDeviation="2.0"/><feColorMatrix in="blurOut" result="blurOut2" type="matrix" values="0 0 0 0 0 0 0 0 0 0 0 0 0 0 0 0 0 0 .4 0"/><feOffset dx="4.0" dy="4.0" in="blurOut2" result="blurOut3"/><feBlend in="SourceGraphic" in2="blurOut3" mode="normal"/></filter></defs><g><text fill="#000000" font-family="sans-serif" font-size="18" lengthAdjust="spacingAndGlyphs" textLength="228" x="1216" y="16.708">NOBNOM - Class Diagram</text><!--cluster React--><polygon fill="#D3D3D3" filter="url(#f81fa1sxlcpbo)" points="473,54.9531,483,44.9531,1227,44.9531,1227,751.9531,1217,761.9531,473,761.9531,473,54.9531" style="stroke: #000000; stroke-width: 1.5;"/><line style="stroke: #000000; stroke-width: 1.5;" x1="1217" x2="1226" y1="54.9531" y2="45.9531"/><line style="stroke: #000000; stroke-width: 1.5;" x1="473" x2="1217" y1="54.9531" y2="54.9531"/><line style="stroke: #000000; stroke-width: 1.5;" x1="1217" x2="1217" y1="54.9531" y2="761.9531"/><text fill="#000000" font-family="sans-serif" font-size="14" font-weight="bold" lengthAdjust="spacingAndGlyphs" textLength="44" x="824" y="70.9482">React</text><!--cluster EXPRESS.JS--><polygon fill="#7FFFD4" filter="url(#f81fa1sxlcpbo)" points="1251,131.9531,1261,121.9531,1414,121.9531,1414,266.9531,1404,276.9531,1251,276.9531,1251,131.9531" style="stroke: #000000; stroke-width: 1.5;"/><line style="stroke: #000000; stroke-width: 1.5;" x1="1404" x2="1413" y1="131.9531" y2="122.9531"/><line style="stroke: #000000; stroke-width: 1.5;" x1="1251" x2="1404" y1="131.9531" y2="131.9531"/><line style="stroke: #000000; stroke-width: 1.5;" x1="1404" x2="1404" y1="131.9531" y2="276.9531"/><text fill="#000000" font-family="sans-serif" font-size="14" font-weight="bold" lengthAdjust="spacingAndGlyphs" textLength="87" x="1285" y="147.9482">EXPRESS.JS</text><!--cluster Sequelize--><path d="M22,121.9531 C22,111.9531 235.5,111.9531 235.5,111.9531 C235.5,111.9531 449,111.9531 449,121.9531 L449,592.9531 C449,602.9531 235.5,602.9531 235.5,602.9531 C235.5,602.9531 22,602.9531 22,592.9531 L22,121.9531 " fill="#E6E6FA" filter="url(#f81fa1sxlcpbo)" style="stroke: #000000; stroke-width: 1.5;"/><path d="M22,121.9531 C22,131.9531 235.5,131.9531 235.5,131.9531 C235.5,131.9531 449,131.9531 449,121.9531 " fill="none" style="stroke: #000000; stroke-width: 1.5;"/><text fill="#000000" font-family="sans-serif" font-size="14" font-weight="bold" lengthAdjust="spacingAndGlyphs" textLength="77" x="197" y="146.9482">Sequelize</text><!--cluster POSTGRE--><path d="M1438,76.9531 C1438,66.9531 1528,66.9531 1528,66.9531 C1528,66.9531 1618,66.9531 1618,76.9531 L1618,311.9531 C1618,321.9531 1528,321.9531 1528,321.9531 C1528,321.9531 1438,321.9531 1438,311.9531 L1438,76.9531 " fill="#BA55D3" filter="url(#f81fa1sxlcpbo)" style="stroke: #000000; stroke-width: 1.5;"/><path d="M1438,76.9531 C1438,86.9531 1528,86.9531 1528,86.9531 C1528,86.9531 1618,86.9531 1618,76.9531 " fill="none" style="stroke: #000000; stroke-width: 1.5;"/><text fill="#000000" font-family="sans-serif" font-size="14" font-weight="bold" lengthAdjust="spacingAndGlyphs" textLength="73" x="1491.5" y="101.9482">POSTGRE</text><!--cluster Google.Maps--><path d="M1645,88.9531 C1645,85.9531 1647,83.9531 1650,83.9531 C1653,83.9531 1655,85.9531 1655,88.9531 C1655,85.9531 1657,83.9531 1660,83.9531 C1663,83.9531 1665,85.9531 1665,88.9531 C1665,85.9531 1667,83.9531 1670,83.9531 C1673,83.9531 1675,85.9531 1675,88.9531 C1675,85.9531 1677,83.9531 1680,83.9531 C1683,83.9531 1685,85.9531 1685,88.9531 C1685,85.9531 1687,83.9531 1690,83.9531 C1693,83.9531 1695,85.9531 1695,88.9531 C1695,85.9531 1697,83.9531 1700,83.9531 C1703,83.9531 1705,85.9531 1705,88.9531 C1705,85.9531 1707,83.9531 1710,83.9531 C1713,83.9531 1715,85.9531 1715,88.9531 C1715,85.9531 1717,83.9531 1720,83.9531 C1723,83.9531 1725,85.9531 1725,88.9531 C1725,85.9531 1727,83.9531 1730,83.9531 C1733,83.9531 1735,85.9531 1735,88.9531 C1735,85.9531 1737,83.9531 1740,83.9531 C1743,83.9531 1745,85.9531 1745,88.9531 C1745,85.9531 1747,83.9531 1750,83.9531 C1753,83.9531 1755,85.9531 1755,88.9531 C1755,85.9531 1757,83.9531 1760,83.9531 C1763,83.9531 1765,85.9531 1765,88.9531 C1765,85.9531 1767,83.9531 1770,83.9531 C1773,83.9531 1775,85.9531 1775,88.9531 C1775,85.9531 1777,83.9531 1780,83.9531 C1783,83.9531 1785,85.9531 1785,88.9531 C1785,85.9531 1787,83.9531 1790,83.9531 C1793,83.9531 1795,85.9531 1795,88.9531 C1795,85.9531 1797,83.9531 1800,83.9531 C1803,83.9531 1805,85.9531 1805,88.9531 C1805,85.9531 1807,83.9531 1810,83.9531 C1813,83.9531 1815,85.9531 1815,88.9531 C1815,85.9531 1817,83.9531 1820,83.9531 C1823,83.9531 1825,85.9531 1825,88.9531 C1825,85.9531 1827,83.9531 1830,83.9531 C1833,83.9531 1835,85.9531 1835,88.9531 C1835,85.9531 1837,83.9531 1840,83.9531 C1843,83.9531 1845,85.9531 1845,88.9531 C1845,85.9531 1847,83.9531 1850,83.9531 C1853,83.9531 1855,85.9531 1855,88.9531 C1855,85.9531 1857,83.9531 1860,83.9531 C1863,83.9531 1865,85.9531 1865,88.9531 C1865,85.9531 1867,83.9531 1870,83.9531 C1873,83.9531 1875,85.9531 1875,88.9531 C1875,85.9531 1877,83.9531 1880,83.9531 C1883,83.9531 1885,85.9531 1885,88.9531 C1885,85.9531 1887,83.9531 1890,83.9531 C1893,83.9531 1895,85.9531 1895,88.9531 C1895,85.9531 1897,83.9531 1900,83.9531 C1903,83.9531 1905,85.9531 1905,88.9531 C1905,85.9531 1907,83.9531 1910,83.9531 C1913,83.9531 1915,85.9531 1915,88.9531 C1915,85.9531 1917,83.9531 1920,83.9531 C1923,83.9531 1925,85.9531 1925,88.9531 C1925,85.9531 1927,83.9531 1930,83.9531 C1933,83.9531 1935,85.9531 1935,88.9531 C1935,85.9531 1937,83.9531 1940,83.9531 C1943,83.9531 1945,85.9531 1945,88.9531 C1945,85.9531 1947,83.9531 1950,83.9531 C1953,83.9531 1955,85.9531 1955,88.9531 C1955,85.9531 1957,83.9531 1960,83.9531 C1963,83.9531 1965,85.9531 1965,88.9531 C1965,85.9531 1967,83.9531 1970,83.9531 C1973,83.9531 1975,85.9531 1975,88.9531 C1975,85.9531 1977,83.9531 1980,83.9531 C1983,83.9531 1985,85.9531 1985,88.9531 C1985,85.9531 1987,83.9531 1990,83.9531 C1993,83.9531 1995,85.9531 1995,88.9531 C1995,85.9531 1997,83.9531 2000,83.9531 C2003,83.9531 2005,85.9531 2005,88.9531 C2005,85.9531 2007,83.9531 2010,83.9531 C2013,83.9531 2015,85.9531 2015,88.9531 C2015,85.9531 2017,83.9531 2020,83.9531 C2023,83.9531 2025,85.9531 2025,88.9531 C2025,85.9531 2027,83.9531 2030,83.9531 C2033,83.9531 2035,85.9531 2035,88.9531 C2035,85.9531 2037,83.9531 2040,83.9531 C2043,83.9531 2045,85.9531 2045,88.9531 C2045,85.9531 2047,83.9531 2050,83.9531 C2053,83.9531 2055,85.9531 2055,88.9531 C2055,85.9531 2057,83.9531 2060,83.9531 C2063,83.9531 2065,85.9531 2065,88.9531 C2065,85.9531 2067,83.9531 2070,83.9531 C2073,83.9531 2075,85.9531 2075,88.9531 C2075,85.9531 2077,83.9531 2080,83.9531 C2083,83.9531 2085,85.9531 2085,88.9531 C2085,85.9531 2087,83.9531 2090,83.9531 C2093,83.9531 2095,85.9531 2095,88.9531 C2095,85.9531 2097,83.9531 2100,83.9531 C2103,83.9531 2105,85.9531 2105,88.9531 C2105,85.9531 2107,83.9531 2110,83.9531 C2113,83.9531 2115,85.9531 2115,88.9531 C2115,85.9531 2117,83.9531 2120,83.9531 C2123,83.9531 2125,85.9531 2125,88.9531 C2125,85.9531 2127,83.9531 2130,83.9531 C2133,83.9531 2135,85.9531 2135,88.9531 C2135,85.9531 2137,83.9531 2140,83.9531 C2143,83.9531 2145,85.9531 2145,88.9531 C2145,85.9531 2147,83.9531 2150,83.9531 C2153,83.9531 2155,85.9531 2155,88.9531 C2155,85.9531 2157,83.9531 2160,83.9531 C2163,83.9531 2165,85.9531 2165,88.9531 C2165,85.9531 2167,83.9531 2170,83.9531 C2173,83.9531 2175,85.9531 2175,88.9531 C2175,85.9531 2177,83.9531 2180,83.9531 C2183,83.9531 2185,85.9531 2185,88.9531 C2185,85.9531 2187,83.9531 2190,83.9531 C2193,83.9531 2195,85.9531 2195,88.9531 C2195,85.9531 2197,83.9531 2200,83.9531 C2203,83.9531 2205,85.9531 2205,88.9531 C2205,85.9531 2207,83.9531 2210,83.9531 C2213,83.9531 2215,85.9531 2215,88.9531 C2215,85.9531 2217,83.9531 2220,83.9531 C2223,83.9531 2225,85.9531 2225,88.9531 C2225,85.9531 2227,83.9531 2230,83.9531 C2233,83.9531 2235,85.9531 2235,88.9531 C2235,85.9531 2237,83.9531 2240,83.9531 C2243,83.9531 2245,85.9531 2245,88.9531 C2245,85.9531 2247,83.9531 2250,83.9531 C2253,83.9531 2255,85.9531 2255,88.9531 C2255,85.9531 2257,83.9531 2260,83.9531 C2263,83.9531 2265,85.9531 2265,88.9531 C2265,85.9531 2267,83.9531 2270,83.9531 C2273,83.9531 2275,85.9531 2275,88.9531 C2275,85.9531 2277,83.9531 2280,83.9531 C2283,83.9531 2285,85.9531 2285,88.9531 C2285,85.9531 2287,83.9531 2290,83.9531 C2293,83.9531 2295,85.9531 2295,88.9531 C2295,85.9531 2297,83.9531 2300,83.9531 C2303,83.9531 2305,85.9531 2305,88.9531 C2305,85.9531 2307,83.9531 2310,83.9531 C2313,83.9531 2315,85.9531 2315,88.9531 C2315,85.9531 2317,83.9531 2320,83.9531 C2323,83.9531 2325,85.9531 2325,88.9531 C2325,85.9531 2327,83.9531 2330,83.9531 C2333,83.9531 2335,85.9531 2335,88.9531 C2335,85.9531 2337,83.9531 2340,83.9531 C2343,83.9531 2345,85.9531 2345,88.9531 C2345,85.9531 2347,83.9531 2350,83.9531 C2353,83.9531 2355,85.9531 2355,88.9531 C2355,85.9531 2357,83.9531 2360,83.9531 C2363,83.9531 2365,85.9531 2365,88.9531 C2365,85.9531 2367,83.9531 2370,83.9531 C2373,83.9531 2375,85.9531 2375,88.9531 C2375,85.9531 2377,83.9531 2380,83.9531 C2383,83.9531 2385,85.9531 2385,88.9531 C2385,85.9531 2387,83.9531 2390,83.9531 C2393,83.9531 2395,85.9531 2395,88.9531 C2395,85.9531 2397,83.9531 2400,83.9531 C2403,83.9531 2405,85.9531 2405,88.9531 C2405,85.9531 2407,83.9531 2410,83.9531 C2413,83.9531 2415,85.9531 2415,88.9531 C2415,85.9531 2417,83.9531 2420,83.9531 C2423,83.9531 2425,85.9531 2425,88.9531 C2425,85.9531 2427,83.9531 2430,83.9531 C2433,83.9531 2435,85.9531 2435,88.9531 C2435,85.9531 2437,83.9531 2440,83.9531 C2443,83.9531 2445,85.9531 2445,88.9531 C2445,85.9531 2447,83.9531 2450,83.9531 C2453,83.9531 2455,85.9531 2455,88.9531 C2455,85.9531 2457,83.9531 2460,83.9531 C2463,83.9531 2465,85.9531 2465,88.9531 C2465,85.9531 2467,83.9531 2470,83.9531 C2473,83.9531 2475,85.9531 2475,88.9531 C2475,85.9531 2477,83.9531 2480,83.9531 C2483,83.9531 2485,85.9531 2485,88.9531 C2485,85.9531 2487,83.9531 2490,83.9531 C2493,83.9531 2495,85.9531 2495,88.9531 C2495,85.9531 2497,83.9531 2500,83.9531 C2503,83.9531 2505,85.9531 2505,88.9531 C2505,85.9531 2507,83.9531 2510,83.9531 C2513,83.9531 2515,85.9531 2515,88.9531 C2515,85.9531 2517,83.9531 2520,83.9531 C2523,83.9531 2525,85.9531 2525,88.9531 C2525,85.9531 2527,83.9531 2530,83.9531 C2533,83.9531 2535,85.9531 2535,88.9531 C2535,85.9531 2537,83.9531 2540,83.9531 C2543,83.9531 2545,85.9531 2545,88.9531 C2545,85.9531 2547,83.9531 2550,83.9531 C2553,83.9531 2555,85.9531 2555,88.9531 C2555,85.9531 2557,83.9531 2560,83.9531 C2563,83.9531 2565,85.9531 2565,88.9531 C2565,85.9531 2567,83.9531 2570,83.9531 C2573,83.9531 2575,85.9531 2575,88.9531 C2575,85.9531 2577,83.9531 2580,83.9531 C2583,83.9531 2585,85.9531 2585,88.9531 C2585,85.9531 2587,83.9531 2590,83.9531 C2593,83.9531 2595,85.9531 2595,88.9531 C2595,85.9531 2597,83.9531 2600,83.9531 C2603,83.9531 2605,85.9531 2605,88.9531 C2605,85.9531 2607,83.9531 2610,83.9531 C2613,83.9531 2615,85.9531 2615,88.9531 C2615,85.9531 2617,83.9531 2620,83.9531 C2623,83.9531 2625,85.9531 2625,88.9531 C2628,88.9531 2630,90.9531 2630,93.9531 C2630,96.9531 2628,98.9531 2625,98.9531 C2628,98.9531 2630,100.9531 2630,103.9531 C2630,106.9531 2628,108.9531 2625,108.9531 C2628,108.9531 2630,110.9531 2630,113.9531 C2630,116.9531 2628,118.9531 2625,118.9531 C2628,118.9531 2630,120.9531 2630,123.9531 C2630,126.9531 2628,128.9531 2625,128.9531 C2628,128.9531 2630,130.9531 2630,133.9531 C2630,136.9531 2628,138.9531 2625,138.9531 C2628,138.9531 2630,140.9531 2630,143.9531 C2630,146.9531 2628,148.9531 2625,148.9531 C2628,148.9531 2630,150.9531 2630,153.9531 C2630,156.9531 2628,158.9531 2625,158.9531 C2628,158.9531 2630,160.9531 2630,163.9531 C2630,166.9531 2628,168.9531 2625,168.9531 C2628,168.9531 2630,170.9531 2630,173.9531 C2630,176.9531 2628,178.9531 2625,178.9531 C2628,178.9531 2630,180.9531 2630,183.9531 C2630,186.9531 2628,188.9531 2625,188.9531 C2628,188.9531 2630,190.9531 2630,193.9531 C2630,196.9531 2628,198.9531 2625,198.9531 C2628,198.9531 2630,200.9531 2630,203.9531 C2630,206.9531 2628,208.9531 2625,208.9531 C2628,208.9531 2630,210.9531 2630,213.9531 C2630,216.9531 2628,218.9531 2625,218.9531 C2628,218.9531 2630,220.9531 2630,223.9531 C2630,226.9531 2628,228.9531 2625,228.9531 C2628,228.9531 2630,230.9531 2630,233.9531 C2630,236.9531 2628,238.9531 2625,238.9531 C2628,238.9531 2630,240.9531 2630,243.9531 C2630,246.9531 2628,248.9531 2625,248.9531 C2628,248.9531 2630,250.9531 2630,253.9531 C2630,256.9531 2628,258.9531 2625,258.9531 C2628,258.9531 2630,260.9531 2630,263.9531 C2630,266.9531 2628,268.9531 2625,268.9531 C2628,268.9531 2630,270.9531 2630,273.9531 C2630,276.9531 2628,278.9531 2625,278.9531 C2628,278.9531 2630,280.9531 2630,283.9531 C2630,286.9531 2628,288.9531 2625,288.9531 C2628,288.9531 2630,290.9531 2630,293.9531 C2630,296.9531 2628,298.9531 2625,298.9531 C2628,298.9531 2630,300.9531 2630,303.9531 C2630,306.9531 2628,308.9531 2625,308.9531 C2628,308.9531 2630,310.9531 2630,313.9531 C2630,316.9531 2628,318.9531 2625,318.9531 C2628,318.9531 2630,320.9531 2630,323.9531 C2630,326.9531 2628,328.9531 2625,328.9531 C2628,328.9531 2630,330.9531 2630,333.9531 C2630,336.9531 2628,338.9531 2625,338.9531 C2628,338.9531 2630,340.9531 2630,343.9531 C2630,346.9531 2628,348.9531 2625,348.9531 C2628,348.9531 2630,350.9531 2630,353.9531 C2630,356.9531 2628,358.9531 2625,358.9531 C2628,358.9531 2630,360.9531 2630,363.9531 C2630,366.9531 2628,368.9531 2625,368.9531 C2628,368.9531 2630,370.9531 2630,373.9531 C2630,376.9531 2628,378.9531 2625,378.9531 C2628,378.9531 2630,380.9531 2630,383.9531 C2630,386.9531 2628,388.9531 2625,388.9531 C2628,388.9531 2630,390.9531 2630,393.9531 C2630,396.9531 2628,398.9531 2625,398.9531 C2628,398.9531 2630,400.9531 2630,403.9531 C2630,406.9531 2628,408.9531 2625,408.9531 C2628,408.9531 2630,410.9531 2630,413.9531 C2630,416.9531 2628,418.9531 2625,418.9531 C2628,418.9531 2630,420.9531 2630,423.9531 C2630,426.9531 2628,428.9531 2625,428.9531 C2628,428.9531 2630,430.9531 2630,433.9531 C2630,436.9531 2628,438.9531 2625,438.9531 C2628,438.9531 2630,440.9531 2630,443.9531 C2630,446.9531 2628,448.9531 2625,448.9531 C2628,448.9531 2630,450.9531 2630,453.9531 C2630,456.9531 2628,458.9531 2625,458.9531 C2628,458.9531 2630,460.9531 2630,463.9531 C2630,466.9531 2628,468.9531 2625,468.9531 C2628,468.9531 2630,470.9531 2630,473.9531 C2630,476.9531 2628,478.9531 2625,478.9531 C2628,478.9531 2630,480.9531 2630,483.9531 C2630,486.9531 2628,488.9531 2625,488.9531 C2628,488.9531 2630,490.9531 2630,493.9531 C2630,496.9531 2628,498.9531 2625,498.9531 C2628,498.9531 2630,500.9531 2630,503.9531 C2630,506.9531 2628,508.9531 2625,508.9531 C2628,508.9531 2630,510.9531 2630,513.9531 C2630,516.9531 2628,518.9531 2625,518.9531 C2628,518.9531 2630,520.9531 2630,523.9531 C2630,526.9531 2628,528.9531 2625,528.9531 C2625,531.9531 2622,533.9531 2620,533.9531 C2617,533.9531 2615,531.9531 2615,528.9531 C2615,531.9531 2612,533.9531 2610,533.9531 C2607,533.9531 2605,531.9531 2605,528.9531 C2605,531.9531 2602,533.9531 2600,533.9531 C2597,533.9531 2595,531.9531 2595,528.9531 C2595,531.9531 2592,533.9531 2590,533.9531 C2587,533.9531 2585,531.9531 2585,528.9531 C2585,531.9531 2582,533.9531 2580,533.9531 C2577,533.9531 2575,531.9531 2575,528.9531 C2575,531.9531 2572,533.9531 2570,533.9531 C2567,533.9531 2565,531.9531 2565,528.9531 C2565,531.9531 2562,533.9531 2560,533.9531 C2557,533.9531 2555,531.9531 2555,528.9531 C2555,531.9531 2552,533.9531 2550,533.9531 C2547,533.9531 2545,531.9531 2545,528.9531 C2545,531.9531 2542,533.9531 2540,533.9531 C2537,533.9531 2535,531.9531 2535,528.9531 C2535,531.9531 2532,533.9531 2530,533.9531 C2527,533.9531 2525,531.9531 2525,528.9531 C2525,531.9531 2522,533.9531 2520,533.9531 C2517,533.9531 2515,531.9531 2515,528.9531 C2515,531.9531 2512,533.9531 2510,533.9531 C2507,533.9531 2505,531.9531 2505,528.9531 C2505,531.9531 2502,533.9531 2500,533.9531 C2497,533.9531 2495,531.9531 2495,528.9531 C2495,531.9531 2492,533.9531 2490,533.9531 C2487,533.9531 2485,531.9531 2485,528.9531 C2485,531.9531 2482,533.9531 2480,533.9531 C2477,533.9531 2475,531.9531 2475,528.9531 C2475,531.9531 2472,533.9531 2470,533.9531 C2467,533.9531 2465,531.9531 2465,528.9531 C2465,531.9531 2462,533.9531 2460,533.9531 C2457,533.9531 2455,531.9531 2455,528.9531 C2455,531.9531 2452,533.9531 2450,533.9531 C2447,533.9531 2445,531.9531 2445,528.9531 C2445,531.9531 2442,533.9531 2440,533.9531 C2437,533.9531 2435,531.9531 2435,528.9531 C2435,531.9531 2432,533.9531 2430,533.9531 C2427,533.9531 2425,531.9531 2425,528.9531 C2425,531.9531 2422,533.9531 2420,533.9531 C2417,533.9531 2415,531.9531 2415,528.9531 C2415,531.9531 2412,533.9531 2410,533.9531 C2407,533.9531 2405,531.9531 2405,528.9531 C2405,531.9531 2402,533.9531 2400,533.9531 C2397,533.9531 2395,531.9531 2395,528.9531 C2395,531.9531 2392,533.9531 2390,533.9531 C2387,533.9531 2385,531.9531 2385,528.9531 C2385,531.9531 2382,533.9531 2380,533.9531 C2377,533.9531 2375,531.9531 2375,528.9531 C2375,531.9531 2372,533.9531 2370,533.9531 C2367,533.9531 2365,531.9531 2365,528.9531 C2365,531.9531 2362,533.9531 2360,533.9531 C2357,533.9531 2355,531.9531 2355,528.9531 C2355,531.9531 2352,533.9531 2350,533.9531 C2347,533.9531 2345,531.9531 2345,528.9531 C2345,531.9531 2342,533.9531 2340,533.9531 C2337,533.9531 2335,531.9531 2335,528.9531 C2335,531.9531 2332,533.9531 2330,533.9531 C2327,533.9531 2325,531.9531 2325,528.9531 C2325,531.9531 2322,533.9531 2320,533.9531 C2317,533.9531 2315,531.9531 2315,528.9531 C2315,531.9531 2312,533.9531 2310,533.9531 C2307,533.9531 2305,531.9531 2305,528.9531 C2305,531.9531 2302,533.9531 2300,533.9531 C2297,533.9531 2295,531.9531 2295,528.9531 C2295,531.9531 2292,533.9531 2290,533.9531 C2287,533.9531 2285,531.9531 2285,528.9531 C2285,531.9531 2282,533.9531 2280,533.9531 C2277,533.9531 2275,531.9531 2275,528.9531 C2275,531.9531 2272,533.9531 2270,533.9531 C2267,533.9531 2265,531.9531 2265,528.9531 C2265,531.9531 2262,533.9531 2260,533.9531 C2257,533.9531 2255,531.9531 2255,528.9531 C2255,531.9531 2252,533.9531 2250,533.9531 C2247,533.9531 2245,531.9531 2245,528.9531 C2245,531.9531 2242,533.9531 2240,533.9531 C2237,533.9531 2235,531.9531 2235,528.9531 C2235,531.9531 2232,533.9531 2230,533.9531 C2227,533.9531 2225,531.9531 2225,528.9531 C2225,531.9531 2222,533.9531 2220,533.9531 C2217,533.9531 2215,531.9531 2215,528.9531 C2215,531.9531 2212,533.9531 2210,533.9531 C2207,533.9531 2205,531.9531 2205,528.9531 C2205,531.9531 2202,533.9531 2200,533.9531 C2197,533.9531 2195,531.9531 2195,528.9531 C2195,531.9531 2192,533.9531 2190,533.9531 C2187,533.9531 2185,531.9531 2185,528.9531 C2185,531.9531 2182,533.9531 2180,533.9531 C2177,533.9531 2175,531.9531 2175,528.9531 C2175,531.9531 2172,533.9531 2170,533.9531 C2167,533.9531 2165,531.9531 2165,528.9531 C2165,531.9531 2162,533.9531 2160,533.9531 C2157,533.9531 2155,531.9531 2155,528.9531 C2155,531.9531 2152,533.9531 2150,533.9531 C2147,533.9531 2145,531.9531 2145,528.9531 C2145,531.9531 2142,533.9531 2140,533.9531 C2137,533.9531 2135,531.9531 2135,528.9531 C2135,531.9531 2132,533.9531 2130,533.9531 C2127,533.9531 2125,531.9531 2125,528.9531 C2125,531.9531 2122,533.9531 2120,533.9531 C2117,533.9531 2115,531.9531 2115,528.9531 C2115,531.9531 2112,533.9531 2110,533.9531 C2107,533.9531 2105,531.9531 2105,528.9531 C2105,531.9531 2102,533.9531 2100,533.9531 C2097,533.9531 2095,531.9531 2095,528.9531 C2095,531.9531 2092,533.9531 2090,533.9531 C2087,533.9531 2085,531.9531 2085,528.9531 C2085,531.9531 2082,533.9531 2080,533.9531 C2077,533.9531 2075,531.9531 2075,528.9531 C2075,531.9531 2072,533.9531 2070,533.9531 C2067,533.9531 2065,531.9531 2065,528.9531 C2065,531.9531 2062,533.9531 2060,533.9531 C2057,533.9531 2055,531.9531 2055,528.9531 C2055,531.9531 2052,533.9531 2050,533.9531 C2047,533.9531 2045,531.9531 2045,528.9531 C2045,531.9531 2042,533.9531 2040,533.9531 C2037,533.9531 2035,531.9531 2035,528.9531 C2035,531.9531 2032,533.9531 2030,533.9531 C2027,533.9531 2025,531.9531 2025,528.9531 C2025,531.9531 2022,533.9531 2020,533.9531 C2017,533.9531 2015,531.9531 2015,528.9531 C2015,531.9531 2012,533.9531 2010,533.9531 C2007,533.9531 2005,531.9531 2005,528.9531 C2005,531.9531 2002,533.9531 2000,533.9531 C1997,533.9531 1995,531.9531 1995,528.9531 C1995,531.9531 1992,533.9531 1990,533.9531 C1987,533.9531 1985,531.9531 1985,528.9531 C1985,531.9531 1982,533.9531 1980,533.9531 C1977,533.9531 1975,531.9531 1975,528.9531 C1975,531.9531 1972,533.9531 1970,533.9531 C1967,533.9531 1965,531.9531 1965,528.9531 C1965,531.9531 1962,533.9531 1960,533.9531 C1957,533.9531 1955,531.9531 1955,528.9531 C1955,531.9531 1952,533.9531 1950,533.9531 C1947,533.9531 1945,531.9531 1945,528.9531 C1945,531.9531 1942,533.9531 1940,533.9531 C1937,533.9531 1935,531.9531 1935,528.9531 C1935,531.9531 1932,533.9531 1930,533.9531 C1927,533.9531 1925,531.9531 1925,528.9531 C1925,531.9531 1922,533.9531 1920,533.9531 C1917,533.9531 1915,531.9531 1915,528.9531 C1915,531.9531 1912,533.9531 1910,533.9531 C1907,533.9531 1905,531.9531 1905,528.9531 C1905,531.9531 1902,533.9531 1900,533.9531 C1897,533.9531 1895,531.9531 1895,528.9531 C1895,531.9531 1892,533.9531 1890,533.9531 C1887,533.9531 1885,531.9531 1885,528.9531 C1885,531.9531 1882,533.9531 1880,533.9531 C1877,533.9531 1875,531.9531 1875,528.9531 C1875,531.9531 1872,533.9531 1870,533.9531 C1867,533.9531 1865,531.9531 1865,528.9531 C1865,531.9531 1862,533.9531 1860,533.9531 C1857,533.9531 1855,531.9531 1855,528.9531 C1855,531.9531 1852,533.9531 1850,533.9531 C1847,533.9531 1845,531.9531 1845,528.9531 C1845,531.9531 1842,533.9531 1840,533.9531 C1837,533.9531 1835,531.9531 1835,528.9531 C1835,531.9531 1832,533.9531 1830,533.9531 C1827,533.9531 1825,531.9531 1825,528.9531 C1825,531.9531 1822,533.9531 1820,533.9531 C1817,533.9531 1815,531.9531 1815,528.9531 C1815,531.9531 1812,533.9531 1810,533.9531 C1807,533.9531 1805,531.9531 1805,528.9531 C1805,531.9531 1802,533.9531 1800,533.9531 C1797,533.9531 1795,531.9531 1795,528.9531 C1795,531.9531 1792,533.9531 1790,533.9531 C1787,533.9531 1785,531.9531 1785,528.9531 C1785,531.9531 1782,533.9531 1780,533.9531 C1777,533.9531 1775,531.9531 1775,528.9531 C1775,531.9531 1772,533.9531 1770,533.9531 C1767,533.9531 1765,531.9531 1765,528.9531 C1765,531.9531 1762,533.9531 1760,533.9531 C1757,533.9531 1755,531.9531 1755,528.9531 C1755,531.9531 1752,533.9531 1750,533.9531 C1747,533.9531 1745,531.9531 1745,528.9531 C1745,531.9531 1742,533.9531 1740,533.9531 C1737,533.9531 1735,531.9531 1735,528.9531 C1735,531.9531 1732,533.9531 1730,533.9531 C1727,533.9531 1725,531.9531 1725,528.9531 C1725,531.9531 1722,533.9531 1720,533.9531 C1717,533.9531 1715,531.9531 1715,528.9531 C1715,531.9531 1712,533.9531 1710,533.9531 C1707,533.9531 1705,531.9531 1705,528.9531 C1705,531.9531 1702,533.9531 1700,533.9531 C1697,533.9531 1695,531.9531 1695,528.9531 C1695,531.9531 1692,533.9531 1690,533.9531 C1687,533.9531 1685,531.9531 1685,528.9531 C1685,531.9531 1682,533.9531 1680,533.9531 C1677,533.9531 1675,531.9531 1675,528.9531 C1675,531.9531 1672,533.9531 1670,533.9531 C1667,533.9531 1665,531.9531 1665,528.9531 C1665,531.9531 1662,533.9531 1660,533.9531 C1657,533.9531 1655,531.9531 1655,528.9531 C1655,531.9531 1652,533.9531 1650,533.9531 C1647,533.9531 1645,531.9531 1645,528.9531 C1642,528.9531 1640,526.9531 1640,523.9531 C1640,520.9531 1642,518.9531 1645,518.9531 C1642,518.9531 1640,516.9531 1640,513.9531 C1640,510.9531 1642,508.9531 1645,508.9531 C1642,508.9531 1640,506.9531 1640,503.9531 C1640,500.9531 1642,498.9531 1645,498.9531 C1642,498.9531 1640,496.9531 1640,493.9531 C1640,490.9531 1642,488.9531 1645,488.9531 C1642,488.9531 1640,486.9531 1640,483.9531 C1640,480.9531 1642,478.9531 1645,478.9531 C1642,478.9531 1640,476.9531 1640,473.9531 C1640,470.9531 1642,468.9531 1645,468.9531 C1642,468.9531 1640,466.9531 1640,463.9531 C1640,460.9531 1642,458.9531 1645,458.9531 C1642,458.9531 1640,456.9531 1640,453.9531 C1640,450.9531 1642,448.9531 1645,448.9531 C1642,448.9531 1640,446.9531 1640,443.9531 C1640,440.9531 1642,438.9531 1645,438.9531 C1642,438.9531 1640,436.9531 1640,433.9531 C1640,430.9531 1642,428.9531 1645,428.9531 C1642,428.9531 1640,426.9531 1640,423.9531 C1640,420.9531 1642,418.9531 1645,418.9531 C1642,418.9531 1640,416.9531 1640,413.9531 C1640,410.9531 1642,408.9531 1645,408.9531 C1642,408.9531 1640,406.9531 1640,403.9531 C1640,400.9531 1642,398.9531 1645,398.9531 C1642,398.9531 1640,396.9531 1640,393.9531 C1640,390.9531 1642,388.9531 1645,388.9531 C1642,388.9531 1640,386.9531 1640,383.9531 C1640,380.9531 1642,378.9531 1645,378.9531 C1642,378.9531 1640,376.9531 1640,373.9531 C1640,370.9531 1642,368.9531 1645,368.9531 C1642,368.9531 1640,366.9531 1640,363.9531 C1640,360.9531 1642,358.9531 1645,358.9531 C1642,358.9531 1640,356.9531 1640,353.9531 C1640,350.9531 1642,348.9531 1645,348.9531 C1642,348.9531 1640,346.9531 1640,343.9531 C1640,340.9531 1642,338.9531 1645,338.9531 C1642,338.9531 1640,336.9531 1640,333.9531 C1640,330.9531 1642,328.9531 1645,328.9531 C1642,328.9531 1640,326.9531 1640,323.9531 C1640,320.9531 1642,318.9531 1645,318.9531 C1642,318.9531 1640,316.9531 1640,313.9531 C1640,310.9531 1642,308.9531 1645,308.9531 C1642,308.9531 1640,306.9531 1640,303.9531 C1640,300.9531 1642,298.9531 1645,298.9531 C1642,298.9531 1640,296.9531 1640,293.9531 C1640,290.9531 1642,288.9531 1645,288.9531 C1642,288.9531 1640,286.9531 1640,283.9531 C1640,280.9531 1642,278.9531 1645,278.9531 C1642,278.9531 1640,276.9531 1640,273.9531 C1640,270.9531 1642,268.9531 1645,268.9531 C1642,268.9531 1640,266.9531 1640,263.9531 C1640,260.9531 1642,258.9531 1645,258.9531 C1642,258.9531 1640,256.9531 1640,253.9531 C1640,250.9531 1642,248.9531 1645,248.9531 C1642,248.9531 1640,246.9531 1640,243.9531 C1640,240.9531 1642,238.9531 1645,238.9531 C1642,238.9531 1640,236.9531 1640,233.9531 C1640,230.9531 1642,228.9531 1645,228.9531 C1642,228.9531 1640,226.9531 1640,223.9531 C1640,220.9531 1642,218.9531 1645,218.9531 C1642,218.9531 1640,216.9531 1640,213.9531 C1640,210.9531 1642,208.9531 1645,208.9531 C1642,208.9531 1640,206.9531 1640,203.9531 C1640,200.9531 1642,198.9531 1645,198.9531 C1642,198.9531 1640,196.9531 1640,193.9531 C1640,190.9531 1642,188.9531 1645,188.9531 C1642,188.9531 1640,186.9531 1640,183.9531 C1640,180.9531 1642,178.9531 1645,178.9531 C1642,178.9531 1640,176.9531 1640,173.9531 C1640,170.9531 1642,168.9531 1645,168.9531 C1642,168.9531 1640,166.9531 1640,163.9531 C1640,160.9531 1642,158.9531 1645,158.9531 C1642,158.9531 1640,156.9531 1640,153.9531 C1640,150.9531 1642,148.9531 1645,148.9531 C1642,148.9531 1640,146.9531 1640,143.9531 C1640,140.9531 1642,138.9531 1645,138.9531 C1642,138.9531 1640,136.9531 1640,133.9531 C1640,130.9531 1642,128.9531 1645,128.9531 C1642,128.9531 1640,126.9531 1640,123.9531 C1640,120.9531 1642,118.9531 1645,118.9531 C1642,118.9531 1640,116.9531 1640,113.9531 C1640,110.9531 1642,108.9531 1645,108.9531 C1642,108.9531 1640,106.9531 1640,103.9531 C1640,100.9531 1642,98.9531 1645,98.9531 C1642,98.9531 1640,96.9531 1640,93.9531 C1640,90.9531 1642,88.9531 1645,88.9531 " fill="#FFFFFF" filter="url(#f81fa1sxlcpbo)" style="stroke: #000000; stroke-width: 1.5;"/><text fill="#000000" font-family="sans-serif" font-size="14" font-weight="bold" lengthAdjust="spacingAndGlyphs" textLength="102" x="2083" y="107.9482">Google.Maps</text><!--class Component--><rect fill="#FEFECE" filter="url(#f81fa1sxlcpbo)" height="252.875" id="Component" style="stroke: #A80036; stroke-width: 1.5;" width="222" x="739" y="84.9531"/><ellipse cx="809.75" cy="100.9531" fill="#ADD1B2" rx="11" ry="11" style="stroke: #A80036; stroke-width: 1.0;"/><path d="M812.0938,96.625 L812.2656,96.7031 C812.4844,96.3906 812.6875,96.2969 812.9844,96.2969 C813.2813,96.2969 813.5625,96.4375 813.7188,96.7031 C813.8125,96.8594 813.8281,96.9844 813.8281,97.4219 L813.8281,98.8438 C813.8281,99.2656 813.7969,99.4531 813.6875,99.6094 C813.5156,99.8281 813.25,99.9688 812.9844,99.9688 C812.7656,99.9688 812.5313,99.8594 812.3906,99.7188 C812.25,99.5938 812.2188,99.4688 812.1563,99.0625 C812.0625,98.6563 811.8906,98.4375 811.4063,98.1563 C810.9375,97.9063 810.3281,97.75 809.75,97.75 C808.0156,97.75 806.7656,99.0625 806.7656,100.8438 L806.7656,101.9375 C806.7656,103.6406 808.0625,104.7344 810.1094,104.7344 C810.875,104.7344 811.5625,104.6094 811.9844,104.3438 C812.1719,104.25 812.1719,104.25 812.625,103.7656 C812.8125,103.5781 813.0156,103.5 813.2344,103.5 C813.7031,103.5 814.0938,103.8906 814.0938,104.3438 C814.0938,104.7344 813.7656,105.1875 813.1875,105.5938 C812.4375,106.1406 811.2813,106.4375 810.0625,106.4375 C807.1719,106.4375 805.0625,104.5469 805.0625,101.9688 L805.0625,100.8438 C805.0625,98.125 807.0625,96.0469 809.6875,96.0469 C810.5625,96.0469 811.1563,96.1875 812.0938,96.625 Z "/><text fill="#000000" font-family="sans-serif" font-size="12" lengthAdjust="spacingAndGlyphs" textLength="72" x="830.25" y="105.1074">Component</text><line style="stroke: #A80036; stroke-width: 1.5;" x1="740" x2="960" y1="116.9531" y2="116.9531"/><ellipse cx="750" cy="128.8555" fill="none" rx="3" ry="3" style="stroke: #038048; stroke-width: 1.0;"/><text fill="#000000" font-family="sans-serif" font-size="11" lengthAdjust="spacingAndGlyphs" textLength="72" x="759" y="131.1636">defaultProps</text><ellipse cx="750" cy="141.6602" fill="none" rx="3" ry="3" style="stroke: #038048; stroke-width: 1.0;"/><text fill="#000000" font-family="sans-serif" font-size="11" lengthAdjust="spacingAndGlyphs" textLength="73" x="759" y="143.9683">displayName</text><line style="stroke: #A80036; stroke-width: 1.5;" x1="740" x2="960" y1="150.5625" y2="150.5625"/><ellipse cx="750" cy="162.4648" fill="#84BE84" rx="3" ry="3" style="stroke: #038048; stroke-width: 1.0;"/><text fill="#000000" font-family="sans-serif" font-size="11" lengthAdjust="spacingAndGlyphs" textLength="73" x="759" y="164.7729">constructor()</text><ellipse cx="750" cy="175.2695" fill="#84BE84" rx="3" ry="3" style="stroke: #038048; stroke-width: 1.0;"/><text fill="#000000" font-family="sans-serif" font-size="11" lengthAdjust="spacingAndGlyphs" textLength="196" x="759" y="177.5776">static getDerivedStateFromProps()</text><ellipse cx="750" cy="188.0742" fill="#84BE84" rx="3" ry="3" style="stroke: #038048; stroke-width: 1.0;"/><text fill="#000000" font-family="sans-serif" font-size="11" lengthAdjust="spacingAndGlyphs" textLength="46" x="759" y="190.3823">render()</text><ellipse cx="750" cy="200.8789" fill="#84BE84" rx="3" ry="3" style="stroke: #038048; stroke-width: 1.0;"/><text fill="#000000" font-family="sans-serif" font-size="11" lengthAdjust="spacingAndGlyphs" textLength="123" x="759" y="203.187">componentDidMount()</text><ellipse cx="750" cy="213.6836" fill="#84BE84" rx="3" ry="3" style="stroke: #038048; stroke-width: 1.0;"/><text fill="#000000" font-family="sans-serif" font-size="11" lengthAdjust="spacingAndGlyphs" textLength="196" x="759" y="215.9917">static getDerivedStateFromProps()</text><ellipse cx="750" cy="226.4883" fill="#84BE84" rx="3" ry="3" style="stroke: #038048; stroke-width: 1.0;"/><text fill="#000000" font-family="sans-serif" font-size="11" lengthAdjust="spacingAndGlyphs" textLength="151" x="759" y="228.7964">shouldComponentUpdate()</text><ellipse cx="750" cy="239.293" fill="#84BE84" rx="3" ry="3" style="stroke: #038048; stroke-width: 1.0;"/><text fill="#000000" font-family="sans-serif" font-size="11" lengthAdjust="spacingAndGlyphs" textLength="46" x="759" y="241.6011">render()</text><ellipse cx="750" cy="252.0977" fill="#84BE84" rx="3" ry="3" style="stroke: #038048; stroke-width: 1.0;"/><text fill="#000000" font-family="sans-serif" font-size="11" lengthAdjust="spacingAndGlyphs" textLength="158" x="759" y="254.4058">getSnapshotBeforeUpdate()</text><ellipse cx="750" cy="264.9023" fill="#84BE84" rx="3" ry="3" style="stroke: #038048; stroke-width: 1.0;"/><text fill="#000000" font-family="sans-serif" font-size="11" lengthAdjust="spacingAndGlyphs" textLength="129" x="759" y="267.2104">componentDidUpdate()</text><ellipse cx="750" cy="277.707" fill="#84BE84" rx="3" ry="3" style="stroke: #038048; stroke-width: 1.0;"/><text fill="#000000" font-family="sans-serif" font-size="11" lengthAdjust="spacingAndGlyphs" textLength="140" x="759" y="280.0151">componentWillUnmount()</text><ellipse cx="750" cy="290.5117" fill="#84BE84" rx="3" ry="3" style="stroke: #038048; stroke-width: 1.0;"/><text fill="#000000" font-family="sans-serif" font-size="11" lengthAdjust="spacingAndGlyphs" textLength="192" x="759" y="292.8198">static getDerivedStateFromError()</text><ellipse cx="750" cy="303.3164" fill="#84BE84" rx="3" ry="3" style="stroke: #038048; stroke-width: 1.0;"/><text fill="#000000" font-family="sans-serif" font-size="11" lengthAdjust="spacingAndGlyphs" textLength="121" x="759" y="305.6245">componentDidCatch()</text><ellipse cx="750" cy="316.1211" fill="#84BE84" rx="3" ry="3" style="stroke: #038048; stroke-width: 1.0;"/><text fill="#000000" font-family="sans-serif" font-size="11" lengthAdjust="spacingAndGlyphs" textLength="56" x="759" y="318.4292">setState()</text><ellipse cx="750" cy="328.9258" fill="#84BE84" rx="3" ry="3" style="stroke: #038048; stroke-width: 1.0;"/><text fill="#000000" font-family="sans-serif" font-size="11" lengthAdjust="spacingAndGlyphs" textLength="77" x="759" y="331.2339">forceUpdate()</text><!--class App--><rect fill="#FEFECE" filter="url(#f81fa1sxlcpbo)" height="60.8047" id="App" style="stroke: #A80036; stroke-width: 1.5;" width="56" x="822" y="461.9531"/><ellipse cx="837" cy="477.9531" fill="#ADD1B2" rx="11" ry="11" style="stroke: #A80036; stroke-width: 1.0;"/><path d="M839.3438,473.625 L839.5156,473.7031 C839.7344,473.3906 839.9375,473.2969 840.2344,473.2969 C840.5313,473.2969 840.8125,473.4375 840.9688,473.7031 C841.0625,473.8594 841.0781,473.9844 841.0781,474.4219 L841.0781,475.8438 C841.0781,476.2656 841.0469,476.4531 840.9375,476.6094 C840.7656,476.8281 840.5,476.9688 840.2344,476.9688 C840.0156,476.9688 839.7813,476.8594 839.6406,476.7188 C839.5,476.5938 839.4688,476.4688 839.4063,476.0625 C839.3125,475.6563 839.1406,475.4375 838.6563,475.1563 C838.1875,474.9063 837.5781,474.75 837,474.75 C835.2656,474.75 834.0156,476.0625 834.0156,477.8438 L834.0156,478.9375 C834.0156,480.6406 835.3125,481.7344 837.3594,481.7344 C838.125,481.7344 838.8125,481.6094 839.2344,481.3438 C839.4219,481.25 839.4219,481.25 839.875,480.7656 C840.0625,480.5781 840.2656,480.5 840.4844,480.5 C840.9531,480.5 841.3438,480.8906 841.3438,481.3438 C841.3438,481.7344 841.0156,482.1875 840.4375,482.5938 C839.6875,483.1406 838.5313,483.4375 837.3125,483.4375 C834.4219,483.4375 832.3125,481.5469 832.3125,478.9688 L832.3125,477.8438 C832.3125,475.125 834.3125,473.0469 836.9375,473.0469 C837.8125,473.0469 838.4063,473.1875 839.3438,473.625 Z "/><text fill="#000000" font-family="sans-serif" font-size="12" lengthAdjust="spacingAndGlyphs" textLength="24" x="851" y="482.1074">App</text><line style="stroke: #A80036; stroke-width: 1.5;" x1="823" x2="877" y1="493.9531" y2="493.9531"/><line style="stroke: #A80036; stroke-width: 1.5;" x1="823" x2="877" y1="501.9531" y2="501.9531"/><ellipse cx="833" cy="513.8555" fill="#84BE84" rx="3" ry="3" style="stroke: #038048; stroke-width: 1.0;"/><text fill="#000000" font-family="sans-serif" font-size="11" lengthAdjust="spacingAndGlyphs" textLength="29" x="842" y="516.1636">use()</text><!--class VendorMap--><rect fill="#FEFECE" filter="url(#f81fa1sxlcpbo)" height="99.2188" id="VendorMap" style="stroke: #A80036; stroke-width: 1.5;" width="264" x="489" y="646.9531"/><ellipse cx="581.25" cy="662.9531" fill="#ADD1B2" rx="11" ry="11" style="stroke: #A80036; stroke-width: 1.0;"/><path d="M583.5938,658.625 L583.7656,658.7031 C583.9844,658.3906 584.1875,658.2969 584.4844,658.2969 C584.7813,658.2969 585.0625,658.4375 585.2188,658.7031 C585.3125,658.8594 585.3281,658.9844 585.3281,659.4219 L585.3281,660.8438 C585.3281,661.2656 585.2969,661.4531 585.1875,661.6094 C585.0156,661.8281 584.75,661.9688 584.4844,661.9688 C584.2656,661.9688 584.0313,661.8594 583.8906,661.7188 C583.75,661.5938 583.7188,661.4688 583.6563,661.0625 C583.5625,660.6563 583.3906,660.4375 582.9063,660.1563 C582.4375,659.9063 581.8281,659.75 581.25,659.75 C579.5156,659.75 578.2656,661.0625 578.2656,662.8438 L578.2656,663.9375 C578.2656,665.6406 579.5625,666.7344 581.6094,666.7344 C582.375,666.7344 583.0625,666.6094 583.4844,666.3438 C583.6719,666.25 583.6719,666.25 584.125,665.7656 C584.3125,665.5781 584.5156,665.5 584.7344,665.5 C585.2031,665.5 585.5938,665.8906 585.5938,666.3438 C585.5938,666.7344 585.2656,667.1875 584.6875,667.5938 C583.9375,668.1406 582.7813,668.4375 581.5625,668.4375 C578.6719,668.4375 576.5625,666.5469 576.5625,663.9688 L576.5625,662.8438 C576.5625,660.125 578.5625,658.0469 581.1875,658.0469 C582.0625,658.0469 582.6563,658.1875 583.5938,658.625 Z "/><text fill="#000000" font-family="sans-serif" font-size="12" lengthAdjust="spacingAndGlyphs" textLength="71" x="601.75" y="667.1074">VendorMap</text><line style="stroke: #A80036; stroke-width: 1.5;" x1="490" x2="752" y1="678.9531" y2="678.9531"/><ellipse cx="500" cy="690.8555" fill="none" rx="3" ry="3" style="stroke: #038048; stroke-width: 1.0;"/><text fill="#000000" font-family="sans-serif" font-size="11" lengthAdjust="spacingAndGlyphs" textLength="85" x="509" y="693.1636">String address</text><ellipse cx="500" cy="703.6602" fill="none" rx="3" ry="3" style="stroke: #038048; stroke-width: 1.0;"/><text fill="#000000" font-family="sans-serif" font-size="11" lengthAdjust="spacingAndGlyphs" textLength="238" x="509" y="705.9683">LatLngBounds|LatLngBoundsLiteral bound</text><ellipse cx="500" cy="716.4648" fill="none" rx="3" ry="3" style="stroke: #038048; stroke-width: 1.0;"/><text fill="#000000" font-family="sans-serif" font-size="11" lengthAdjust="spacingAndGlyphs" textLength="147" x="509" y="718.7729">Array&lt;proximityVendors&gt;</text><line style="stroke: #A80036; stroke-width: 1.5;" x1="490" x2="752" y1="725.3672" y2="725.3672"/><ellipse cx="500" cy="737.2695" fill="#84BE84" rx="3" ry="3" style="stroke: #038048; stroke-width: 1.0;"/><text fill="#000000" font-family="sans-serif" font-size="11" lengthAdjust="spacingAndGlyphs" textLength="105" x="509" y="739.5776">LatLng getCenter()</text><!--class VendorList--><rect fill="#FEFECE" filter="url(#f81fa1sxlcpbo)" height="60.8047" id="VendorList" style="stroke: #A80036; stroke-width: 1.5;" width="124" x="788" y="665.9531"/><ellipse cx="814.7" cy="681.9531" fill="#ADD1B2" rx="11" ry="11" style="stroke: #A80036; stroke-width: 1.0;"/><path d="M817.0438,677.625 L817.2156,677.7031 C817.4344,677.3906 817.6375,677.2969 817.9344,677.2969 C818.2313,677.2969 818.5125,677.4375 818.6688,677.7031 C818.7625,677.8594 818.7781,677.9844 818.7781,678.4219 L818.7781,679.8438 C818.7781,680.2656 818.7469,680.4531 818.6375,680.6094 C818.4656,680.8281 818.2,680.9688 817.9344,680.9688 C817.7156,680.9688 817.4813,680.8594 817.3406,680.7188 C817.2,680.5938 817.1688,680.4688 817.1063,680.0625 C817.0125,679.6563 816.8406,679.4375 816.3563,679.1563 C815.8875,678.9063 815.2781,678.75 814.7,678.75 C812.9656,678.75 811.7156,680.0625 811.7156,681.8438 L811.7156,682.9375 C811.7156,684.6406 813.0125,685.7344 815.0594,685.7344 C815.825,685.7344 816.5125,685.6094 816.9344,685.3438 C817.1219,685.25 817.1219,685.25 817.575,684.7656 C817.7625,684.5781 817.9656,684.5 818.1844,684.5 C818.6531,684.5 819.0438,684.8906 819.0438,685.3438 C819.0438,685.7344 818.7156,686.1875 818.1375,686.5938 C817.3875,687.1406 816.2313,687.4375 815.0125,687.4375 C812.1219,687.4375 810.0125,685.5469 810.0125,682.9688 L810.0125,681.8438 C810.0125,679.125 812.0125,677.0469 814.6375,677.0469 C815.5125,677.0469 816.1063,677.1875 817.0438,677.625 Z "/><text fill="#000000" font-family="sans-serif" font-size="12" lengthAdjust="spacingAndGlyphs" textLength="66" x="831.3" y="686.1074">VendorList</text><line style="stroke: #A80036; stroke-width: 1.5;" x1="789" x2="911" y1="697.9531" y2="697.9531"/><ellipse cx="799" cy="709.8555" fill="none" rx="3" ry="3" style="stroke: #038048; stroke-width: 1.0;"/><text fill="#000000" font-family="sans-serif" font-size="11" lengthAdjust="spacingAndGlyphs" textLength="98" x="808" y="712.1636">Array&lt;li Vendor&gt;</text><line style="stroke: #A80036; stroke-width: 1.5;" x1="789" x2="911" y1="718.7578" y2="718.7578"/><!--class VendorInfo--><rect fill="#FEFECE" filter="url(#f81fa1sxlcpbo)" height="73.6094" id="VendorInfo" style="stroke: #A80036; stroke-width: 1.5;" width="264" x="947" y="659.4531"/><ellipse cx="1040.75" cy="675.4531" fill="#ADD1B2" rx="11" ry="11" style="stroke: #A80036; stroke-width: 1.0;"/><path d="M1043.0938,671.125 L1043.2656,671.2031 C1043.4844,670.8906 1043.6875,670.7969 1043.9844,670.7969 C1044.2813,670.7969 1044.5625,670.9375 1044.7188,671.2031 C1044.8125,671.3594 1044.8281,671.4844 1044.8281,671.9219 L1044.8281,673.3438 C1044.8281,673.7656 1044.7969,673.9531 1044.6875,674.1094 C1044.5156,674.3281 1044.25,674.4688 1043.9844,674.4688 C1043.7656,674.4688 1043.5313,674.3594 1043.3906,674.2188 C1043.25,674.0938 1043.2188,673.9688 1043.1563,673.5625 C1043.0625,673.1563 1042.8906,672.9375 1042.4063,672.6563 C1041.9375,672.4063 1041.3281,672.25 1040.75,672.25 C1039.0156,672.25 1037.7656,673.5625 1037.7656,675.3438 L1037.7656,676.4375 C1037.7656,678.1406 1039.0625,679.2344 1041.1094,679.2344 C1041.875,679.2344 1042.5625,679.1094 1042.9844,678.8438 C1043.1719,678.75 1043.1719,678.75 1043.625,678.2656 C1043.8125,678.0781 1044.0156,678 1044.2344,678 C1044.7031,678 1045.0938,678.3906 1045.0938,678.8438 C1045.0938,679.2344 1044.7656,679.6875 1044.1875,680.0938 C1043.4375,680.6406 1042.2813,680.9375 1041.0625,680.9375 C1038.1719,680.9375 1036.0625,679.0469 1036.0625,676.4688 L1036.0625,675.3438 C1036.0625,672.625 1038.0625,670.5469 1040.6875,670.5469 C1041.5625,670.5469 1042.1563,670.6875 1043.0938,671.125 Z "/><text fill="#000000" font-family="sans-serif" font-size="12" lengthAdjust="spacingAndGlyphs" textLength="68" x="1061.25" y="679.6074">VendorInfo</text><line style="stroke: #A80036; stroke-width: 1.5;" x1="948" x2="1210" y1="691.4531" y2="691.4531"/><ellipse cx="958" cy="703.3555" fill="none" rx="3" ry="3" style="stroke: #038048; stroke-width: 1.0;"/><text fill="#000000" font-family="sans-serif" font-size="11" lengthAdjust="spacingAndGlyphs" textLength="85" x="967" y="705.6636">String address</text><ellipse cx="958" cy="716.1602" fill="none" rx="3" ry="3" style="stroke: #038048; stroke-width: 1.0;"/><text fill="#000000" font-family="sans-serif" font-size="11" lengthAdjust="spacingAndGlyphs" textLength="238" x="967" y="718.4683">LatLngBounds|LatLngBoundsLiteral bound</text><line style="stroke: #A80036; stroke-width: 1.5;" x1="948" x2="1210" y1="725.0625" y2="725.0625"/><!--class Express--><rect fill="#FEFECE" filter="url(#f81fa1sxlcpbo)" height="99.2188" id="Express" style="stroke: #A80036; stroke-width: 1.5;" width="81" x="1291.5" y="161.9531"/><ellipse cx="1306.5" cy="177.9531" fill="#ADD1B2" rx="11" ry="11" style="stroke: #A80036; stroke-width: 1.0;"/><path d="M1308.8438,173.625 L1309.0156,173.7031 C1309.2344,173.3906 1309.4375,173.2969 1309.7344,173.2969 C1310.0313,173.2969 1310.3125,173.4375 1310.4688,173.7031 C1310.5625,173.8594 1310.5781,173.9844 1310.5781,174.4219 L1310.5781,175.8438 C1310.5781,176.2656 1310.5469,176.4531 1310.4375,176.6094 C1310.2656,176.8281 1310,176.9688 1309.7344,176.9688 C1309.5156,176.9688 1309.2813,176.8594 1309.1406,176.7188 C1309,176.5938 1308.9688,176.4688 1308.9063,176.0625 C1308.8125,175.6563 1308.6406,175.4375 1308.1563,175.1563 C1307.6875,174.9063 1307.0781,174.75 1306.5,174.75 C1304.7656,174.75 1303.5156,176.0625 1303.5156,177.8438 L1303.5156,178.9375 C1303.5156,180.6406 1304.8125,181.7344 1306.8594,181.7344 C1307.625,181.7344 1308.3125,181.6094 1308.7344,181.3438 C1308.9219,181.25 1308.9219,181.25 1309.375,180.7656 C1309.5625,180.5781 1309.7656,180.5 1309.9844,180.5 C1310.4531,180.5 1310.8438,180.8906 1310.8438,181.3438 C1310.8438,181.7344 1310.5156,182.1875 1309.9375,182.5938 C1309.1875,183.1406 1308.0313,183.4375 1306.8125,183.4375 C1303.9219,183.4375 1301.8125,181.5469 1301.8125,178.9688 L1301.8125,177.8438 C1301.8125,175.125 1303.8125,173.0469 1306.4375,173.0469 C1307.3125,173.0469 1307.9063,173.1875 1308.8438,173.625 Z "/><text fill="#000000" font-family="sans-serif" font-size="12" lengthAdjust="spacingAndGlyphs" textLength="49" x="1320.5" y="182.1074">Express</text><line style="stroke: #A80036; stroke-width: 1.5;" x1="1292.5" x2="1371.5" y1="193.9531" y2="193.9531"/><line style="stroke: #A80036; stroke-width: 1.5;" x1="1292.5" x2="1371.5" y1="201.9531" y2="201.9531"/><ellipse cx="1302.5" cy="213.8555" fill="#84BE84" rx="3" ry="3" style="stroke: #038048; stroke-width: 1.0;"/><text fill="#000000" font-family="sans-serif" font-size="11" lengthAdjust="spacingAndGlyphs" textLength="29" x="1311.5" y="216.1636">App()</text><ellipse cx="1302.5" cy="226.6602" fill="#84BE84" rx="3" ry="3" style="stroke: #038048; stroke-width: 1.0;"/><text fill="#000000" font-family="sans-serif" font-size="11" lengthAdjust="spacingAndGlyphs" textLength="29" x="1311.5" y="228.9683">Req()</text><ellipse cx="1302.5" cy="239.4648" fill="#84BE84" rx="3" ry="3" style="stroke: #038048; stroke-width: 1.0;"/><text fill="#000000" font-family="sans-serif" font-size="11" lengthAdjust="spacingAndGlyphs" textLength="29" x="1311.5" y="241.7729">Res()</text><ellipse cx="1302.5" cy="252.2695" fill="#84BE84" rx="3" ry="3" style="stroke: #038048; stroke-width: 1.0;"/><text fill="#000000" font-family="sans-serif" font-size="11" lengthAdjust="spacingAndGlyphs" textLength="45" x="1311.5" y="254.5776">Router()</text><!--class Vendor--><rect fill="#FEFECE" filter="url(#f81fa1sxlcpbo)" height="99.2188" id="Vendor" style="stroke: #A80036; stroke-width: 1.5;" width="77" x="38.5" y="161.9531"/><ellipse cx="53.5" cy="177.9531" fill="#ADD1B2" rx="11" ry="11" style="stroke: #A80036; stroke-width: 1.0;"/><path d="M55.8438,173.625 L56.0156,173.7031 C56.2344,173.3906 56.4375,173.2969 56.7344,173.2969 C57.0313,173.2969 57.3125,173.4375 57.4688,173.7031 C57.5625,173.8594 57.5781,173.9844 57.5781,174.4219 L57.5781,175.8438 C57.5781,176.2656 57.5469,176.4531 57.4375,176.6094 C57.2656,176.8281 57,176.9688 56.7344,176.9688 C56.5156,176.9688 56.2813,176.8594 56.1406,176.7188 C56,176.5938 55.9688,176.4688 55.9063,176.0625 C55.8125,175.6563 55.6406,175.4375 55.1563,175.1563 C54.6875,174.9063 54.0781,174.75 53.5,174.75 C51.7656,174.75 50.5156,176.0625 50.5156,177.8438 L50.5156,178.9375 C50.5156,180.6406 51.8125,181.7344 53.8594,181.7344 C54.625,181.7344 55.3125,181.6094 55.7344,181.3438 C55.9219,181.25 55.9219,181.25 56.375,180.7656 C56.5625,180.5781 56.7656,180.5 56.9844,180.5 C57.4531,180.5 57.8438,180.8906 57.8438,181.3438 C57.8438,181.7344 57.5156,182.1875 56.9375,182.5938 C56.1875,183.1406 55.0313,183.4375 53.8125,183.4375 C50.9219,183.4375 48.8125,181.5469 48.8125,178.9688 L48.8125,177.8438 C48.8125,175.125 50.8125,173.0469 53.4375,173.0469 C54.3125,173.0469 54.9063,173.1875 55.8438,173.625 Z "/><text fill="#000000" font-family="sans-serif" font-size="12" lengthAdjust="spacingAndGlyphs" textLength="45" x="67.5" y="182.1074">Vendor</text><line style="stroke: #A80036; stroke-width: 1.5;" x1="39.5" x2="114.5" y1="193.9531" y2="193.9531"/><line style="stroke: #A80036; stroke-width: 1.5;" x1="39.5" x2="114.5" y1="201.9531" y2="201.9531"/><ellipse cx="49.5" cy="213.8555" fill="#84BE84" rx="3" ry="3" style="stroke: #038048; stroke-width: 1.0;"/><text fill="#000000" font-family="sans-serif" font-size="11" lengthAdjust="spacingAndGlyphs" textLength="34" x="58.5" y="216.1636">sync()</text><ellipse cx="49.5" cy="226.6602" fill="#84BE84" rx="3" ry="3" style="stroke: #038048; stroke-width: 1.0;"/><text fill="#000000" font-family="sans-serif" font-size="11" lengthAdjust="spacingAndGlyphs" textLength="43" x="58.5" y="228.9683">define()</text><ellipse cx="49.5" cy="239.4648" fill="#84BE84" rx="3" ry="3" style="stroke: #038048; stroke-width: 1.0;"/><text fill="#000000" font-family="sans-serif" font-size="11" lengthAdjust="spacingAndGlyphs" textLength="29" x="58.5" y="241.7729">find()</text><ellipse cx="49.5" cy="252.2695" fill="#84BE84" rx="3" ry="3" style="stroke: #038048; stroke-width: 1.0;"/><text fill="#000000" font-family="sans-serif" font-size="11" lengthAdjust="spacingAndGlyphs" textLength="35" x="58.5" y="254.5776">build()</text><!--class queryInterface()--><rect fill="#FEFECE" filter="url(#f81fa1sxlcpbo)" height="73.6094" id="queryInterface()" style="stroke: #A80036; stroke-width: 1.5;" width="282" x="151" y="174.4531"/><ellipse cx="237.25" cy="190.4531" fill="#ADD1B2" rx="11" ry="11" style="stroke: #A80036; stroke-width: 1.0;"/><path d="M239.5938,186.125 L239.7656,186.2031 C239.9844,185.8906 240.1875,185.7969 240.4844,185.7969 C240.7813,185.7969 241.0625,185.9375 241.2188,186.2031 C241.3125,186.3594 241.3281,186.4844 241.3281,186.9219 L241.3281,188.3438 C241.3281,188.7656 241.2969,188.9531 241.1875,189.1094 C241.0156,189.3281 240.75,189.4688 240.4844,189.4688 C240.2656,189.4688 240.0313,189.3594 239.8906,189.2188 C239.75,189.0938 239.7188,188.9688 239.6563,188.5625 C239.5625,188.1563 239.3906,187.9375 238.9063,187.6563 C238.4375,187.4063 237.8281,187.25 237.25,187.25 C235.5156,187.25 234.2656,188.5625 234.2656,190.3438 L234.2656,191.4375 C234.2656,193.1406 235.5625,194.2344 237.6094,194.2344 C238.375,194.2344 239.0625,194.1094 239.4844,193.8438 C239.6719,193.75 239.6719,193.75 240.125,193.2656 C240.3125,193.0781 240.5156,193 240.7344,193 C241.2031,193 241.5938,193.3906 241.5938,193.8438 C241.5938,194.2344 241.2656,194.6875 240.6875,195.0938 C239.9375,195.6406 238.7813,195.9375 237.5625,195.9375 C234.6719,195.9375 232.5625,194.0469 232.5625,191.4688 L232.5625,190.3438 C232.5625,187.625 234.5625,185.5469 237.1875,185.5469 C238.0625,185.5469 238.6563,185.6875 239.5938,186.125 Z "/><text fill="#000000" font-family="sans-serif" font-size="12" lengthAdjust="spacingAndGlyphs" textLength="101" x="257.75" y="194.6074">queryInterface()</text><line style="stroke: #A80036; stroke-width: 1.5;" x1="152" x2="432" y1="206.4531" y2="206.4531"/><line style="stroke: #A80036; stroke-width: 1.5;" x1="152" x2="432" y1="214.4531" y2="214.4531"/><ellipse cx="162" cy="226.3555" fill="#84BE84" rx="3" ry="3" style="stroke: #038048; stroke-width: 1.0;"/><text fill="#000000" font-family="sans-serif" font-size="11" lengthAdjust="spacingAndGlyphs" textLength="253" x="171" y="228.6636">createTable(String vendorid, Vendor vendor)</text><ellipse cx="162" cy="239.1602" fill="#84BE84" rx="3" ry="3" style="stroke: #038048; stroke-width: 1.0;"/><text fill="#000000" font-family="sans-serif" font-size="11" lengthAdjust="spacingAndGlyphs" textLength="256" x="171" y="241.4683">updateTable(String vendorid, Vendor vendor)</text><!--class user--><rect fill="#FEFECE" filter="url(#f81fa1sxlcpbo)" height="188.8516" id="user" style="stroke: #A80036; stroke-width: 1.5;" width="206" x="38" y="397.9531"/><ellipse cx="122.75" cy="413.9531" fill="#ADD1B2" rx="11" ry="11" style="stroke: #A80036; stroke-width: 1.0;"/><path d="M125.0938,409.625 L125.2656,409.7031 C125.4844,409.3906 125.6875,409.2969 125.9844,409.2969 C126.2813,409.2969 126.5625,409.4375 126.7188,409.7031 C126.8125,409.8594 126.8281,409.9844 126.8281,410.4219 L126.8281,411.8438 C126.8281,412.2656 126.7969,412.4531 126.6875,412.6094 C126.5156,412.8281 126.25,412.9688 125.9844,412.9688 C125.7656,412.9688 125.5313,412.8594 125.3906,412.7188 C125.25,412.5938 125.2188,412.4688 125.1563,412.0625 C125.0625,411.6563 124.8906,411.4375 124.4063,411.1563 C123.9375,410.9063 123.3281,410.75 122.75,410.75 C121.0156,410.75 119.7656,412.0625 119.7656,413.8438 L119.7656,414.9375 C119.7656,416.6406 121.0625,417.7344 123.1094,417.7344 C123.875,417.7344 124.5625,417.6094 124.9844,417.3438 C125.1719,417.25 125.1719,417.25 125.625,416.7656 C125.8125,416.5781 126.0156,416.5 126.2344,416.5 C126.7031,416.5 127.0938,416.8906 127.0938,417.3438 C127.0938,417.7344 126.7656,418.1875 126.1875,418.5938 C125.4375,419.1406 124.2813,419.4375 123.0625,419.4375 C120.1719,419.4375 118.0625,417.5469 118.0625,414.9688 L118.0625,413.8438 C118.0625,411.125 120.0625,409.0469 122.6875,409.0469 C123.5625,409.0469 124.1563,409.1875 125.0938,409.625 Z "/><text fill="#000000" font-family="sans-serif" font-size="12" lengthAdjust="spacingAndGlyphs" textLength="28" x="143.25" y="418.1074">user</text><line style="stroke: #A80036; stroke-width: 1.5;" x1="39" x2="243" y1="429.9531" y2="429.9531"/><text fill="#000000" font-family="sans-serif" font-size="11" lengthAdjust="spacingAndGlyphs" textLength="120" x="44" y="444.1636">Sequelize.INTEGER id</text><text fill="#000000" font-family="sans-serif" font-size="11" lengthAdjust="spacingAndGlyphs" textLength="160" x="44" y="456.9683">Sequelize.STRING firstName</text><text fill="#000000" font-family="sans-serif" font-size="11" lengthAdjust="spacingAndGlyphs" textLength="158" x="44" y="469.7729">Sequelize.STRING lastName</text><text fill="#000000" font-family="sans-serif" font-size="11" lengthAdjust="spacingAndGlyphs" textLength="162" x="44" y="482.5776">Sequelize.STRING username</text><text fill="#000000" font-family="sans-serif" font-size="11" lengthAdjust="spacingAndGlyphs" textLength="135" x="44" y="495.3823">Sequelize.STRING email</text><text fill="#000000" font-family="sans-serif" font-size="11" lengthAdjust="spacingAndGlyphs" textLength="194" x="44" y="508.187">Sequelize.STRING password_hash</text><text fill="#000000" font-family="sans-serif" font-size="11" lengthAdjust="spacingAndGlyphs" textLength="131" x="44" y="520.9917">Sequelize.INTEGER age</text><text fill="#000000" font-family="sans-serif" font-size="11" lengthAdjust="spacingAndGlyphs" textLength="146" x="44" y="533.7964">Sequelize.STRING country</text><text fill="#000000" font-family="sans-serif" font-size="11" lengthAdjust="spacingAndGlyphs" textLength="152" x="44" y="546.6011">Sequelize.STRING location:</text><text fill="#000000" font-family="sans-serif" font-size="11" lengthAdjust="spacingAndGlyphs" textLength="145" x="44" y="559.4058">Sequelize.DATE createdAt</text><text fill="#000000" font-family="sans-serif" font-size="11" lengthAdjust="spacingAndGlyphs" textLength="148" x="44" y="572.2104">Sequelize.DATE updatedAt</text><line style="stroke: #A80036; stroke-width: 1.5;" x1="39" x2="243" y1="578.8047" y2="578.8047"/><!--class VendorObject--><rect fill="#FEFECE" filter="url(#f81fa1sxlcpbo)" height="188.8516" id="VendorObject" style="stroke: #A80036; stroke-width: 1.5;" width="148" x="1454" y="116.9531"/><ellipse cx="1482.95" cy="132.9531" fill="#ADD1B2" rx="11" ry="11" style="stroke: #A80036; stroke-width: 1.0;"/><path d="M1485.2938,128.625 L1485.4656,128.7031 C1485.6844,128.3906 1485.8875,128.2969 1486.1844,128.2969 C1486.4813,128.2969 1486.7625,128.4375 1486.9188,128.7031 C1487.0125,128.8594 1487.0281,128.9844 1487.0281,129.4219 L1487.0281,130.8438 C1487.0281,131.2656 1486.9969,131.4531 1486.8875,131.6094 C1486.7156,131.8281 1486.45,131.9688 1486.1844,131.9688 C1485.9656,131.9688 1485.7313,131.8594 1485.5906,131.7188 C1485.45,131.5938 1485.4188,131.4688 1485.3563,131.0625 C1485.2625,130.6563 1485.0906,130.4375 1484.6063,130.1563 C1484.1375,129.9063 1483.5281,129.75 1482.95,129.75 C1481.2156,129.75 1479.9656,131.0625 1479.9656,132.8438 L1479.9656,133.9375 C1479.9656,135.6406 1481.2625,136.7344 1483.3094,136.7344 C1484.075,136.7344 1484.7625,136.6094 1485.1844,136.3438 C1485.3719,136.25 1485.3719,136.25 1485.825,135.7656 C1486.0125,135.5781 1486.2156,135.5 1486.4344,135.5 C1486.9031,135.5 1487.2938,135.8906 1487.2938,136.3438 C1487.2938,136.7344 1486.9656,137.1875 1486.3875,137.5938 C1485.6375,138.1406 1484.4813,138.4375 1483.2625,138.4375 C1480.3719,138.4375 1478.2625,136.5469 1478.2625,133.9688 L1478.2625,132.8438 C1478.2625,130.125 1480.2625,128.0469 1482.8875,128.0469 C1483.7625,128.0469 1484.3563,128.1875 1485.2938,128.625 Z "/><text fill="#000000" font-family="sans-serif" font-size="12" lengthAdjust="spacingAndGlyphs" textLength="85" x="1500.05" y="137.1074">VendorObject</text><line style="stroke: #A80036; stroke-width: 1.5;" x1="1455" x2="1601" y1="148.9531" y2="148.9531"/><text fill="#000000" font-family="sans-serif" font-size="11" lengthAdjust="spacingAndGlyphs" textLength="120" x="1460" y="163.1636">Sequelize.INTEGER id</text><text fill="#000000" font-family="sans-serif" font-size="11" lengthAdjust="spacingAndGlyphs" textLength="102" x="1460" y="175.9683">STRING firstName</text><text fill="#000000" font-family="sans-serif" font-size="11" lengthAdjust="spacingAndGlyphs" textLength="100" x="1460" y="188.7729">STRING lastName</text><text fill="#000000" font-family="sans-serif" font-size="11" lengthAdjust="spacingAndGlyphs" textLength="104" x="1460" y="201.5776">STRING username</text><text fill="#000000" font-family="sans-serif" font-size="11" lengthAdjust="spacingAndGlyphs" textLength="77" x="1460" y="214.3823">STRING email</text><text fill="#000000" font-family="sans-serif" font-size="11" lengthAdjust="spacingAndGlyphs" textLength="136" x="1460" y="227.187">STRING password_hash</text><text fill="#000000" font-family="sans-serif" font-size="11" lengthAdjust="spacingAndGlyphs" textLength="73" x="1460" y="239.9917">INTEGER age</text><text fill="#000000" font-family="sans-serif" font-size="11" lengthAdjust="spacingAndGlyphs" textLength="88" x="1460" y="252.7964">STRING country</text><text fill="#000000" font-family="sans-serif" font-size="11" lengthAdjust="spacingAndGlyphs" textLength="94" x="1460" y="265.6011">STRING location:</text><text fill="#000000" font-family="sans-serif" font-size="11" lengthAdjust="spacingAndGlyphs" textLength="87" x="1460" y="278.4058">DATE createdAt</text><text fill="#000000" font-family="sans-serif" font-size="11" lengthAdjust="spacingAndGlyphs" textLength="90" x="1460" y="291.2104">DATE updatedAt</text><line style="stroke: #A80036; stroke-width: 1.5;" x1="1455" x2="1601" y1="297.8047" y2="297.8047"/><!--class Maps--><rect fill="#FEFECE" filter="url(#f81fa1sxlcpbo)" height="48" id="Maps" style="stroke: #A80036; stroke-width: 1.5;" width="65" x="2108.5" y="468.4531"/><ellipse cx="2123.5" cy="484.4531" fill="#ADD1B2" rx="11" ry="11" style="stroke: #A80036; stroke-width: 1.0;"/><path d="M2125.8438,480.125 L2126.0156,480.2031 C2126.2344,479.8906 2126.4375,479.7969 2126.7344,479.7969 C2127.0313,479.7969 2127.3125,479.9375 2127.4688,480.2031 C2127.5625,480.3594 2127.5781,480.4844 2127.5781,480.9219 L2127.5781,482.3438 C2127.5781,482.7656 2127.5469,482.9531 2127.4375,483.1094 C2127.2656,483.3281 2127,483.4688 2126.7344,483.4688 C2126.5156,483.4688 2126.2813,483.3594 2126.1406,483.2188 C2126,483.0938 2125.9688,482.9688 2125.9063,482.5625 C2125.8125,482.1563 2125.6406,481.9375 2125.1563,481.6563 C2124.6875,481.4063 2124.0781,481.25 2123.5,481.25 C2121.7656,481.25 2120.5156,482.5625 2120.5156,484.3438 L2120.5156,485.4375 C2120.5156,487.1406 2121.8125,488.2344 2123.8594,488.2344 C2124.625,488.2344 2125.3125,488.1094 2125.7344,487.8438 C2125.9219,487.75 2125.9219,487.75 2126.375,487.2656 C2126.5625,487.0781 2126.7656,487 2126.9844,487 C2127.4531,487 2127.8438,487.3906 2127.8438,487.8438 C2127.8438,488.2344 2127.5156,488.6875 2126.9375,489.0938 C2126.1875,489.6406 2125.0313,489.9375 2123.8125,489.9375 C2120.9219,489.9375 2118.8125,488.0469 2118.8125,485.4688 L2118.8125,484.3438 C2118.8125,481.625 2120.8125,479.5469 2123.4375,479.5469 C2124.3125,479.5469 2124.9063,479.6875 2125.8438,480.125 Z "/><text fill="#000000" font-family="sans-serif" font-size="12" lengthAdjust="spacingAndGlyphs" textLength="33" x="2137.5" y="488.6074">Maps</text><line style="stroke: #A80036; stroke-width: 1.5;" x1="2109.5" x2="2172.5" y1="500.4531" y2="500.4531"/><line style="stroke: #A80036; stroke-width: 1.5;" x1="2109.5" x2="2172.5" y1="508.4531" y2="508.4531"/><!--class Map--><rect fill="#FEFECE" filter="url(#f81fa1sxlcpbo)" height="188.8516" id="Map" style="stroke: #A80036; stroke-width: 1.5;" width="250" x="2360" y="116.9531"/><ellipse cx="2467.75" cy="132.9531" fill="#ADD1B2" rx="11" ry="11" style="stroke: #A80036; stroke-width: 1.0;"/><path d="M2470.0938,128.625 L2470.2656,128.7031 C2470.4844,128.3906 2470.6875,128.2969 2470.9844,128.2969 C2471.2813,128.2969 2471.5625,128.4375 2471.7188,128.7031 C2471.8125,128.8594 2471.8281,128.9844 2471.8281,129.4219 L2471.8281,130.8438 C2471.8281,131.2656 2471.7969,131.4531 2471.6875,131.6094 C2471.5156,131.8281 2471.25,131.9688 2470.9844,131.9688 C2470.7656,131.9688 2470.5313,131.8594 2470.3906,131.7188 C2470.25,131.5938 2470.2188,131.4688 2470.1563,131.0625 C2470.0625,130.6563 2469.8906,130.4375 2469.4063,130.1563 C2468.9375,129.9063 2468.3281,129.75 2467.75,129.75 C2466.0156,129.75 2464.7656,131.0625 2464.7656,132.8438 L2464.7656,133.9375 C2464.7656,135.6406 2466.0625,136.7344 2468.1094,136.7344 C2468.875,136.7344 2469.5625,136.6094 2469.9844,136.3438 C2470.1719,136.25 2470.1719,136.25 2470.625,135.7656 C2470.8125,135.5781 2471.0156,135.5 2471.2344,135.5 C2471.7031,135.5 2472.0938,135.8906 2472.0938,136.3438 C2472.0938,136.7344 2471.7656,137.1875 2471.1875,137.5938 C2470.4375,138.1406 2469.2813,138.4375 2468.0625,138.4375 C2465.1719,138.4375 2463.0625,136.5469 2463.0625,133.9688 L2463.0625,132.8438 C2463.0625,130.125 2465.0625,128.0469 2467.6875,128.0469 C2468.5625,128.0469 2469.1563,128.1875 2470.0938,128.625 Z "/><text fill="#000000" font-family="sans-serif" font-size="12" lengthAdjust="spacingAndGlyphs" textLength="26" x="2488.25" y="137.1074">Map</text><line style="stroke: #A80036; stroke-width: 1.5;" x1="2361" x2="2609" y1="148.9531" y2="148.9531"/><ellipse cx="2371" cy="160.8555" fill="none" rx="3" ry="3" style="stroke: #038048; stroke-width: 1.0;"/><text fill="#000000" font-family="sans-serif" font-size="11" lengthAdjust="spacingAndGlyphs" textLength="199" x="2380" y="163.1636">Array&lt;MVCArray&lt;Node&gt;&gt; controls</text><ellipse cx="2371" cy="173.6602" fill="none" rx="3" ry="3" style="stroke: #038048; stroke-width: 1.0;"/><text fill="#000000" font-family="sans-serif" font-size="11" lengthAdjust="spacingAndGlyphs" textLength="55" x="2380" y="175.9683">Data data</text><ellipse cx="2371" cy="186.4648" fill="none" rx="3" ry="3" style="stroke: #038048; stroke-width: 1.0;"/><text fill="#000000" font-family="sans-serif" font-size="11" lengthAdjust="spacingAndGlyphs" textLength="161" x="2380" y="188.7729">mapTypeRegistry mapTypes</text><ellipse cx="2371" cy="199.2695" fill="none" rx="3" ry="3" style="stroke: #038048; stroke-width: 1.0;"/><text fill="#000000" font-family="sans-serif" font-size="11" lengthAdjust="spacingAndGlyphs" textLength="224" x="2380" y="201.5776">MVCArray&lt;MapType&gt; overlayMapTypes</text><line style="stroke: #A80036; stroke-width: 1.5;" x1="2361" x2="2609" y1="208.1719" y2="208.1719"/><ellipse cx="2371" cy="220.0742" fill="#84BE84" rx="3" ry="3" style="stroke: #038048; stroke-width: 1.0;"/><text fill="#000000" font-family="sans-serif" font-size="11" lengthAdjust="spacingAndGlyphs" textLength="104" x="2380" y="222.3823">fitBounds(bounds)</text><ellipse cx="2371" cy="232.8789" fill="#84BE84" rx="3" ry="3" style="stroke: #038048; stroke-width: 1.0;"/><text fill="#000000" font-family="sans-serif" font-size="11" lengthAdjust="spacingAndGlyphs" textLength="153" x="2380" y="235.187">LatLngBounds getBounds()</text><ellipse cx="2371" cy="245.6836" fill="#84BE84" rx="3" ry="3" style="stroke: #038048; stroke-width: 1.0;"/><text fill="#000000" font-family="sans-serif" font-size="11" lengthAdjust="spacingAndGlyphs" textLength="105" x="2380" y="247.9917">LatLng getCenter()</text><ellipse cx="2371" cy="258.4883" fill="#84BE84" rx="3" ry="3" style="stroke: #038048; stroke-width: 1.0;"/><text fill="#000000" font-family="sans-serif" font-size="11" lengthAdjust="spacingAndGlyphs" textLength="155" x="2380" y="260.7964">boolean getClickableIcons()</text><ellipse cx="2371" cy="271.293" fill="#84BE84" rx="3" ry="3" style="stroke: #038048; stroke-width: 1.0;"/><text fill="#000000" font-family="sans-serif" font-size="11" lengthAdjust="spacingAndGlyphs" textLength="108" x="2380" y="273.6011">number getZoom()</text><ellipse cx="2371" cy="284.0977" fill="#84BE84" rx="3" ry="3" style="stroke: #038048; stroke-width: 1.0;"/><text fill="#000000" font-family="sans-serif" font-size="11" lengthAdjust="spacingAndGlyphs" textLength="137" x="2380" y="286.4058">setOptions(MapOptions)</text><ellipse cx="2371" cy="296.9023" fill="#84BE84" rx="3" ry="3" style="stroke: #038048; stroke-width: 1.0;"/><text fill="#000000" font-family="sans-serif" font-size="11" lengthAdjust="spacingAndGlyphs" textLength="104" x="2380" y="299.2104">setZoom(number)</text><!--class Geocoder--><rect fill="#FEFECE" filter="url(#f81fa1sxlcpbo)" height="73.6094" id="Geocoder" style="stroke: #A80036; stroke-width: 1.5;" width="367" x="1957.5" y="174.4531"/><ellipse cx="2106.25" cy="190.4531" fill="#ADD1B2" rx="11" ry="11" style="stroke: #A80036; stroke-width: 1.0;"/><path d="M2108.5938,186.125 L2108.7656,186.2031 C2108.9844,185.8906 2109.1875,185.7969 2109.4844,185.7969 C2109.7813,185.7969 2110.0625,185.9375 2110.2188,186.2031 C2110.3125,186.3594 2110.3281,186.4844 2110.3281,186.9219 L2110.3281,188.3438 C2110.3281,188.7656 2110.2969,188.9531 2110.1875,189.1094 C2110.0156,189.3281 2109.75,189.4688 2109.4844,189.4688 C2109.2656,189.4688 2109.0313,189.3594 2108.8906,189.2188 C2108.75,189.0938 2108.7188,188.9688 2108.6563,188.5625 C2108.5625,188.1563 2108.3906,187.9375 2107.9063,187.6563 C2107.4375,187.4063 2106.8281,187.25 2106.25,187.25 C2104.5156,187.25 2103.2656,188.5625 2103.2656,190.3438 L2103.2656,191.4375 C2103.2656,193.1406 2104.5625,194.2344 2106.6094,194.2344 C2107.375,194.2344 2108.0625,194.1094 2108.4844,193.8438 C2108.6719,193.75 2108.6719,193.75 2109.125,193.2656 C2109.3125,193.0781 2109.5156,193 2109.7344,193 C2110.2031,193 2110.5938,193.3906 2110.5938,193.8438 C2110.5938,194.2344 2110.2656,194.6875 2109.6875,195.0938 C2108.9375,195.6406 2107.7813,195.9375 2106.5625,195.9375 C2103.6719,195.9375 2101.5625,194.0469 2101.5625,191.4688 L2101.5625,190.3438 C2101.5625,187.625 2103.5625,185.5469 2106.1875,185.5469 C2107.0625,185.5469 2107.6563,185.6875 2108.5938,186.125 Z "/><text fill="#000000" font-family="sans-serif" font-size="12" lengthAdjust="spacingAndGlyphs" textLength="61" x="2126.75" y="194.6074">Geocoder</text><line style="stroke: #A80036; stroke-width: 1.5;" x1="1958.5" x2="2323.5" y1="206.4531" y2="206.4531"/><line style="stroke: #A80036; stroke-width: 1.5;" x1="1958.5" x2="2323.5" y1="214.4531" y2="214.4531"/><ellipse cx="1968.5" cy="226.3555" fill="#84BE84" rx="3" ry="3" style="stroke: #038048; stroke-width: 1.0;"/><text fill="#000000" font-family="sans-serif" font-size="11" lengthAdjust="spacingAndGlyphs" textLength="205" x="1977.5" y="228.6636">geocode(GeocoderRequest request,</text><text fill="#000000" font-family="sans-serif" font-size="11" lengthAdjust="spacingAndGlyphs" textLength="341" x="1977.5" y="241.4683">callBackfunction(Array&lt;GeocoderResult&gt;, GeocoderStatus))</text><!--class GeocoderRequest--><rect fill="#FEFECE" filter="url(#f81fa1sxlcpbo)" height="73.6094" id="GeocoderRequest" style="stroke: #A80036; stroke-width: 1.5;" width="264" x="1658" y="174.4531"/><ellipse cx="1729.75" cy="190.4531" fill="#B4A7E5" rx="11" ry="11" style="stroke: #A80036; stroke-width: 1.0;"/><path d="M1730.7031,187.2344 L1730.7031,193.75 L1732.4219,193.75 C1732.875,193.75 1733.0156,193.7813 1733.1875,193.9063 C1733.4219,194.0781 1733.5313,194.3281 1733.5313,194.6094 C1733.5313,195.1719 1733.1719,195.4531 1732.4219,195.4531 L1727.2813,195.4531 C1726.875,195.4531 1726.6719,195.4063 1726.5156,195.2813 C1726.2969,195.125 1726.1563,194.8594 1726.1563,194.6094 C1726.1563,194.3125 1726.3125,194.0313 1726.5625,193.875 C1726.7188,193.7656 1726.8438,193.75 1727.2813,193.75 L1729,193.75 L1729,187.2344 L1727.2813,187.2344 C1726.8594,187.2344 1726.6719,187.2031 1726.5156,187.0938 C1726.2969,186.9219 1726.1563,186.6719 1726.1563,186.3906 C1726.1563,186.1094 1726.3125,185.8125 1726.5625,185.6563 C1726.7188,185.5625 1726.8438,185.5469 1727.2813,185.5469 L1732.4219,185.5469 C1732.875,185.5469 1733.0156,185.5781 1733.1875,185.6875 C1733.4219,185.8594 1733.5313,186.125 1733.5313,186.3906 C1733.5313,186.6875 1733.3906,186.9688 1733.125,187.125 C1733,187.2031 1732.8125,187.2344 1732.4219,187.2344 Z "/><text fill="#000000" font-family="sans-serif" font-size="12" font-style="italic" lengthAdjust="spacingAndGlyphs" textLength="112" x="1750.25" y="194.6074">GeocoderRequest</text><line style="stroke: #A80036; stroke-width: 1.5;" x1="1659" x2="1921" y1="206.4531" y2="206.4531"/><ellipse cx="1669" cy="218.3555" fill="none" rx="3" ry="3" style="stroke: #038048; stroke-width: 1.0;"/><text fill="#000000" font-family="sans-serif" font-size="11" lengthAdjust="spacingAndGlyphs" textLength="85" x="1678" y="220.6636">String address</text><ellipse cx="1669" cy="231.1602" fill="none" rx="3" ry="3" style="stroke: #038048; stroke-width: 1.0;"/><text fill="#000000" font-family="sans-serif" font-size="11" lengthAdjust="spacingAndGlyphs" textLength="238" x="1678" y="233.4683">LatLngBounds|LatLngBoundsLiteral bound</text><line style="stroke: #A80036; stroke-width: 1.5;" x1="1659" x2="1921" y1="240.0625" y2="240.0625"/><!--link Component to App--><path d="M850,358.0871 C850,397.5741 850,436.4041 850,461.8901 " fill="none" id="Component-App" style="stroke: #A80036; stroke-width: 1.0;"/><polygon fill="none" points="843,358.0781,850,338.0781,857,358.0781,843,358.0781" style="stroke: #A80036; stroke-width: 1.0;"/><!--link App to VendorMap--><path d="M812.009,526.9651 C774.911,559.6891 718.056,609.8401 676.015,646.9241 " fill="none" id="App-VendorMap" style="stroke: #A80036; stroke-width: 1.0;"/><polygon fill="#A80036" points="821.92,518.2221,814.7744,519.1918,812.9212,526.1607,820.0668,525.191,821.92,518.2221" style="stroke: #A80036; stroke-width: 1.0;"/><!--link App to VendorList--><path d="M850,536.4951 C850,575.4381 850,631.7571 850,665.8541 " fill="none" id="App-VendorList" style="stroke: #A80036; stroke-width: 1.0;"/><polygon fill="#A80036" points="850,523.2591,846,529.2591,850,535.2591,854,529.2591,850,523.2591" style="stroke: #A80036; stroke-width: 1.0;"/><!--link App to VendorInfo--><path d="M888.044,527.0121 C929.433,563.5201 995.364,621.6781 1037.91,659.2081 " fill="none" id="App-VendorInfo" style="stroke: #A80036; stroke-width: 1.0;"/><polygon fill="#A80036" points="878.08,518.2221,879.9332,525.191,887.0788,526.1607,885.2256,519.1918,878.08,518.2221" style="stroke: #A80036; stroke-width: 1.0;"/><!--link Geocoder to Maps--><path d="M2141,248.6411 C2141,299.8291 2141,393.2371 2141,448.0751 " fill="none" id="Geocoder-Maps" style="stroke: #A80036; stroke-width: 1.0;"/><polygon fill="none" points="2148,448.3331,2141,468.3331,2134,448.3331,2148,448.3331" style="stroke: #A80036; stroke-width: 1.0;"/><!--link GeocoderRequest to Maps--><path d="M1832.26,248.6651 C1862.08,274.0141 1903.14,308.4801 1940,337.9531 C1991.88,379.4311 2052.63,425.4881 2093.65,456.2301 " fill="none" id="GeocoderRequest-Maps" style="stroke: #A80036; stroke-width: 1.0;"/><polygon fill="none" points="2097.85,450.6281,2109.68,468.2101,2089.47,461.8411,2097.85,450.6281" style="stroke: #A80036; stroke-width: 1.0;"/><!--link Map to Maps--><path d="M2379.88,306.1391 C2367.22,316.9931 2354.39,327.8021 2342,337.9531 C2290.61,380.0411 2229.77,425.9871 2188.59,456.5361 " fill="none" id="Map-Maps" style="stroke: #A80036; stroke-width: 1.0;"/><polygon fill="none" points="2192.74,462.1721,2172.5,468.4321,2184.42,450.9141,2192.74,462.1721" style="stroke: #A80036; stroke-width: 1.0;"/><!--link Vendor to queryInterface()--><!--link Vendor to user--><!--
@startuml
title NOBNOM - Class Diagram
package React <<Node>> #lightgrey {
  class Component {
    + defaultProps
    + displayName
    + constructor()
    + static getDerivedStateFromProps()
    + render()
    + componentDidMount()
    + static getDerivedStateFromProps()
    + shouldComponentUpdate()
    + render()
    + getSnapshotBeforeUpdate()
    + componentDidUpdate()
    + componentWillUnmount()
    + static getDerivedStateFromError()
    + componentDidCatch()
    + setState()
    + forceUpdate()
  }
  class App extends Component {
    + use()
  }
  class VendorMap {
    + String address
    + LatLngBounds|LatLngBoundsLiteral bound
    + LatLng getCenter()
    + Array<proximityVendors>
  }
  class VendorList {
    + Array<li Vendor>
  }
  class VendorInfo {
    + String address
    + LatLngBounds|LatLngBoundsLiteral bound
  }
}

package EXPRESS.JS <<Node>> #aquamarine {
    class Express {
        + App()
        + Req()
        + Res()
        + Router()
  }
}

package Sequelize <<Database>> #lavender {
  class Vendor {
    + sync()
    + define()
    + find()
    + build()
  }
  class queryInterface() {
    + createTable(String vendorid, Vendor vendor)
    + updateTable(String vendorid, Vendor vendor)
  }
  class user {
  
        Sequelize.INTEGER id
        Sequelize.STRING firstName
        Sequelize.STRING lastName
        Sequelize.STRING username
        Sequelize.STRING email
        Sequelize.STRING password_hash
        Sequelize.INTEGER age
        Sequelize.STRING country
        Sequelize.STRING location:
        Sequelize.DATE createdAt
        Sequelize.DATE updatedAt
        
        
    }
  }

package POSTGRE <<Database>> #mediumorchid {
  class VendorObject   {       
        Sequelize.INTEGER id
        STRING firstName
        STRING lastName
        STRING username
        STRING email
        STRING password_hash
        INTEGER age
        STRING country
        STRING location:
        DATE createdAt
        DATE updatedAt
}
}
package Google.Maps <<Cloud>> {
  class Maps {
  }
  class Map {
    + Array<MVCArray<Node>> controls
    + Data data
    + mapTypeRegistry mapTypes
    + MVCArray<MapType> overlayMapTypes
    + fitBounds(bounds)
    + LatLngBounds getBounds()
    + LatLng getCenter()
    + boolean getClickableIcons()
    + number getZoom()
    + setOptions(MapOptions)
    + setZoom(number)
  }
  class Geocoder {
    + geocode(GeocoderRequest request, 
    callBackfunction(Array<GeocoderResult>, GeocoderStatus))
  }
  interface GeocoderRequest {
    + String address
    + LatLngBounds|LatLngBoundsLiteral bound
  }
}

App *- - VendorMap
App *- - VendorList
App *- - VendorInfo

Geocoder - -|> Maps
GeocoderRequest - -|> Maps
Map - -|> Maps
@enduml

PlantUML version 1.2018.13beta15(Unknown compile time)
(GPL source distribution)
Java Runtime: Java(TM) SE Runtime Environment
JVM: Java HotSpot(TM) 64-Bit Server VM
Java Version: 1.7.0_25-b15
Operating System: Linux
Default Encoding: UTF-8
Language: en
Country: US
--></g></svg>