<?xml version="1.0" encoding="UTF-8" standalone="no"?><svg xmlns="http://www.w3.org/2000/svg" xmlns:xlink="http://www.w3.org/1999/xlink" contentScriptType="application/ecmascript" contentStyleType="text/css" height="529px" preserveAspectRatio="none" style="width:1015px;height:529px;" version="1.1" viewBox="0 0 1015 529" width="1015px" zoomAndPan="magnify"><defs><filter height="300%" id="ftv8s2u74622q" width="300%" x="-1" y="-1"><feGaussianBlur result="blurOut" stdDeviation="2.0"/><feColorMatrix in="blurOut" result="blurOut2" type="matrix" values="0 0 0 0 0 0 0 0 0 0 0 0 0 0 0 0 0 0 .4 0"/><feOffset dx="4.0" dy="4.0" in="blurOut2" result="blurOut3"/><feBlend in="SourceGraphic" in2="blurOut3" mode="normal"/></filter></defs><g><text fill="#000000" font-family="sans-serif" font-size="18" lengthAdjust="spacingAndGlyphs" textLength="193" x="422.5" y="16.708">USE CASE DIAGRAMS</text><!--cluster user_flow--><rect fill="#FFFFFF" filter="url(#ftv8s2u74622q)" height="217" style="stroke: #000000; stroke-width: 1.5;" width="819.5" x="184.5" y="301.9531"/><text fill="#000000" font-family="sans-serif" font-size="14" font-weight="bold" lengthAdjust="spacingAndGlyphs" textLength="77" x="555.75" y="316.9482">user_flow</text><!--cluster vendor_flow--><rect fill="#FFFFFF" filter="url(#ftv8s2u74622q)" height="233" style="stroke: #000000; stroke-width: 1.5;" width="407" x="184" y="44.9531"/><text fill="#000000" font-family="sans-serif" font-size="14" font-weight="bold" lengthAdjust="spacingAndGlyphs" textLength="97" x="339" y="59.9482">vendor_flow</text><ellipse cx="271.9465" cy="421.1424" fill="#FEFECE" filter="url(#ftv8s2u74622q)" rx="71.4465" ry="16.6893" style="stroke: #A80036; stroke-width: 1.5;"/><text fill="#000000" font-family="sans-serif" font-size="14" lengthAdjust="spacingAndGlyphs" textLength="110" x="216.9465" y="425.7909">search_vendors</text><ellipse cx="489.8259" cy="388.9768" fill="#FEFECE" filter="url(#ftv8s2u74622q)" rx="55.3259" ry="14.5236" style="stroke: #A80036; stroke-width: 1.5;"/><text fill="#000000" font-family="sans-serif" font-size="14" lengthAdjust="spacingAndGlyphs" textLength="74" x="452.8259" y="393.6252">vendor_list</text><ellipse cx="490.2132" cy="452.9768" fill="#FEFECE" filter="url(#ftv8s2u74622q)" rx="24.2132" ry="14.5236" style="stroke: #A80036; stroke-width: 1.5;"/><text fill="#000000" font-family="sans-serif" font-size="14" lengthAdjust="spacingAndGlyphs" textLength="30" x="475.2132" y="457.6252">map</text><ellipse cx="711.4711" cy="421.0473" fill="#FEFECE" filter="url(#ftv8s2u74622q)" rx="73.4711" ry="17.0942" style="stroke: #A80036; stroke-width: 1.5;"/><text fill="#000000" font-family="sans-serif" font-size="14" lengthAdjust="spacingAndGlyphs" textLength="115" x="653.9711" y="425.6958">vendor_selected</text><ellipse cx="917.0794" cy="486.969" fill="#FEFECE" filter="url(#ftv8s2u74622q)" rx="65.5794" ry="15.5159" style="stroke: #A80036; stroke-width: 1.5;"/><text fill="#000000" font-family="sans-serif" font-size="14" lengthAdjust="spacingAndGlyphs" textLength="95" x="869.5794" y="491.6174">vendor_about</text><ellipse cx="917.0794" cy="420.969" fill="#FEFECE" filter="url(#ftv8s2u74622q)" rx="65.5794" ry="15.5159" style="stroke: #A80036; stroke-width: 1.5;"/><text fill="#000000" font-family="sans-serif" font-size="14" lengthAdjust="spacingAndGlyphs" textLength="95" x="869.5794" y="425.6174">vendor_menu</text><ellipse cx="917.0454" cy="354.0622" fill="#FEFECE" filter="url(#ftv8s2u74622q)" rx="71.0454" ry="16.6091" style="stroke: #A80036; stroke-width: 1.5;"/><text fill="#000000" font-family="sans-serif" font-size="14" lengthAdjust="spacingAndGlyphs" textLength="109" x="862.5454" y="358.7106">vender_location</text><ellipse cx="271.8489" cy="172.7229" fill="#FEFECE" filter="url(#ftv8s2u74622q)" rx="71.8489" ry="16.7698" style="stroke: #A80036; stroke-width: 1.5;"/><text fill="#000000" font-family="sans-serif" font-size="14" lengthAdjust="spacingAndGlyphs" textLength="111" x="216.3489" y="177.3713">vendor_account</text><ellipse cx="489.8678" cy="244.1267" fill="#FEFECE" filter="url(#ftv8s2u74622q)" rx="78.8678" ry="18.1736" style="stroke: #A80036; stroke-width: 1.5;"/><text fill="#000000" font-family="sans-serif" font-size="14" lengthAdjust="spacingAndGlyphs" textLength="128" x="425.8678" y="248.7751">edit_vender_about</text><ellipse cx="489.8678" cy="173.1267" fill="#FEFECE" filter="url(#ftv8s2u74622q)" rx="78.8678" ry="18.1736" style="stroke: #A80036; stroke-width: 1.5;"/><text fill="#000000" font-family="sans-serif" font-size="14" lengthAdjust="spacingAndGlyphs" textLength="128" x="425.8678" y="177.7751">edit_vender_menu</text><ellipse cx="489.8592" cy="99.825" fill="#FEFECE" filter="url(#ftv8s2u74622q)" rx="84.8592" ry="19.3718" style="stroke: #A80036; stroke-width: 1.5;"/><text fill="#000000" font-family="sans-serif" font-size="14" lengthAdjust="spacingAndGlyphs" textLength="142" x="418.8592" y="104.4734">edit_vender_location</text><!--entity user--><ellipse cx="30" cy="388.4531" fill="#FEFECE" filter="url(#ftv8s2u74622q)" rx="8" ry="8" style="stroke: #A80036; stroke-width: 2.0;"/><path d="M30,396.4531 L30,423.4531 M17,404.4531 L43,404.4531 M30,423.4531 L17,438.4531 M30,423.4531 L43,438.4531 " fill="none" filter="url(#ftv8s2u74622q)" style="stroke: #A80036; stroke-width: 2.0;"/><text fill="#000000" font-family="sans-serif" font-size="14" lengthAdjust="spacingAndGlyphs" textLength="31" x="14.5" y="458.4482">user</text><!--entity vendor--><ellipse cx="30" cy="142.4531" fill="#FEFECE" filter="url(#ftv8s2u74622q)" rx="8" ry="8" style="stroke: #A80036; stroke-width: 2.0;"/><path d="M30,150.4531 L30,177.4531 M17,158.4531 L43,158.4531 M30,177.4531 L17,192.4531 M30,177.4531 L43,192.4531 " fill="none" filter="url(#ftv8s2u74622q)" style="stroke: #A80036; stroke-width: 2.0;"/><text fill="#000000" font-family="sans-serif" font-size="14" lengthAdjust="spacingAndGlyphs" textLength="48" x="6" y="212.4482">vendor</text><!--link user to search_vendors--><path d="M45.6518,420.0141 C74.7858,420.1351 141.787,420.4151 195.204,420.6371 " fill="none" id="user-search_vendors" style="stroke: #A80036; stroke-width: 1.0;"/><polygon fill="#A80036" points="200.329,420.6591,191.3462,416.6206,195.329,420.6377,191.3119,424.6205,200.329,420.6591" style="stroke: #A80036; stroke-width: 1.0;"/><text fill="#000000" font-family="sans-serif" font-size="13" lengthAdjust="spacingAndGlyphs" textLength="82" x="85" y="416.02">request auth</text><!--link user to search_vendors--><path d="M50.2402,431.5491 C59.9871,436.7567 72.2265,442.3157 84,444.9531 C133.507,456.0433 191.617,444.9058 229.763,434.3911 " fill="none" id="user-search_vendors" style="stroke: #A80036; stroke-width: 1.0;"/><polygon fill="#A80036" points="45.6685,429.0351,51.6275,436.8767,50.0498,431.4443,55.4822,429.8667,45.6685,429.0351" style="stroke: #A80036; stroke-width: 1.0;"/><text fill="#000000" font-family="sans-serif" font-size="13" lengthAdjust="spacingAndGlyphs" textLength="64" x="94" y="441.02">deny auth</text><!--link search_vendors to vendor_list--><path d="M332.595,412.1241 C365.072,407.3131 404.913,401.4101 436.256,396.7671 " fill="none" id="search_vendors-vendor_list" style="stroke: #A80036; stroke-width: 1.0;"/><polygon fill="#A80036" points="441.211,396.0331,431.7219,393.3955,436.265,396.766,432.8945,401.3091,441.211,396.0331" style="stroke: #A80036; stroke-width: 1.0;"/><!--link search_vendors to map--><path d="M332.595,429.7821 C374.673,436.0158 429.113,444.0809 461.415,448.8665 " fill="none" id="search_vendors-map" style="stroke: #A80036; stroke-width: 1.0;"/><polygon fill="#A80036" points="466.404,449.6056,458.0875,444.3297,461.458,448.8728,456.9149,452.2433,466.404,449.6056" style="stroke: #A80036; stroke-width: 1.0;"/><!--link map to vendor_selected--><path d="M513.664,449.6491 C544.144,445.2054 599.638,437.1153 643.95,430.6551 " fill="none" id="map-vendor_selected" style="stroke: #A80036; stroke-width: 1.0;"/><polygon fill="#A80036" points="649.022,429.9161,639.5391,427.2563,644.0743,430.6374,640.6932,435.1726,649.022,429.9161" style="stroke: #A80036; stroke-width: 1.0;"/><!--link map to vendor_list--><path d="M490,433.2871 C490,425.1051 490,416.9241 490,408.7421 " fill="none" id="map-vendor_list" style="stroke: #A80036; stroke-width: 1.0;"/><polygon fill="#A80036" points="490,403.6481,486,412.6481,490,408.6481,494,412.6481,490,403.6481" style="stroke: #A80036; stroke-width: 1.0;"/><polygon fill="#A80036" points="490,438.4531,494,429.4531,490,433.4531,486,429.4531,490,438.4531" style="stroke: #A80036; stroke-width: 1.0;"/><!--link vendor_list to vendor_selected--><path d="M538.899,395.9361 C569.678,400.4231 610.093,406.3151 643.97,411.2541 " fill="none" id="vendor_list-vendor_selected" style="stroke: #A80036; stroke-width: 1.0;"/><polygon fill="#A80036" points="648.919,411.9751,640.5902,406.7186,643.9713,411.2538,639.4361,414.6349,648.919,411.9751" style="stroke: #A80036; stroke-width: 1.0;"/><!--link vendor_selected to vendor_about--><path d="M755.16,434.7891 C789.597,445.9574 837.852,461.6078 872.508,472.8477 " fill="none" id="vendor_selected-vendor_about" style="stroke: #A80036; stroke-width: 1.0;"/><polygon fill="#A80036" points="877.52,474.4729,870.1934,467.891,872.764,472.9301,867.7249,475.5007,877.52,474.4729" style="stroke: #A80036; stroke-width: 1.0;"/><!--link vendor_selected to vendor_menu--><path d="M785.106,420.9531 C804.91,420.9531 826.322,420.9531 845.979,420.9531 " fill="none" id="vendor_selected-vendor_menu" style="stroke: #A80036; stroke-width: 1.0;"/><polygon fill="#A80036" points="851.204,420.9531,842.204,416.9531,846.204,420.9531,842.204,424.9531,851.204,420.9531" style="stroke: #A80036; stroke-width: 1.0;"/><!--link vendor_selected to vender_location--><path d="M754.665,407.0711 C788.398,395.9651 835.62,380.4171 870.261,369.0121 " fill="none" id="vendor_selected-vender_location" style="stroke: #A80036; stroke-width: 1.0;"/><polygon fill="#A80036" points="875.277,367.3601,865.4776,366.3742,870.5276,368.9232,867.9786,373.9733,875.277,367.3601" style="stroke: #A80036; stroke-width: 1.0;"/><!--link vendor to vendor_account--><path d="M54.0122,173.8571 C86.1043,173.7231 145.838,173.4751 194.52,173.2721 " fill="none" id="vendor-vendor_account" style="stroke: #A80036; stroke-width: 1.0;"/><polygon fill="#A80036" points="199.795,173.2501,190.7779,169.2887,194.795,173.2716,190.8122,177.2887,199.795,173.2501" style="stroke: #A80036; stroke-width: 1.0;"/><text fill="#000000" font-family="sans-serif" font-size="13" lengthAdjust="spacingAndGlyphs" textLength="82" x="85" y="170.02">request auth</text><!--link vendor to vendor_account--><path d="M58.9739,189.9461 C66.8231,193.6481 75.532,197.0561 84,198.9531 C133.896,210.1301 192.422,198.0311 230.531,186.8721 " fill="none" id="vendor-vendor_account" style="stroke: #A80036; stroke-width: 1.0;"/><polygon fill="#A80036" points="54.2076,187.6141,60.534,195.1624,58.6989,189.8115,64.0498,187.9763,54.2076,187.6141" style="stroke: #A80036; stroke-width: 1.0;"/><text fill="#000000" font-family="sans-serif" font-size="13" lengthAdjust="spacingAndGlyphs" textLength="64" x="94" y="195.02">deny auth</text><!--link vendor_account to vendor_account--><path d="M256.938,156.1781 C248.353,139.4511 253.373,120.9531 272,120.9531 C288.881,120.9531 294.587,136.1451 289.118,151.4431 " fill="none" id="vendor_account-vendor_account" style="stroke: #A80036; stroke-width: 1.0;"/><polygon fill="#A80036" points="287.062,156.1781,294.3159,149.5163,289.0536,151.5919,286.978,146.3296,287.062,156.1781" style="stroke: #A80036; stroke-width: 1.0;"/><text fill="#000000" font-family="sans-serif" font-size="13" lengthAdjust="spacingAndGlyphs" textLength="94" x="225" y="112.02">authorize login</text><!--link vendor_account to edit_vender_about--><path d="M314.903,186.7271 C350.479,198.4211 401.602,215.2251 439.25,227.6001 " fill="none" id="vendor_account-edit_vender_about" style="stroke: #A80036; stroke-width: 1.0;"/><polygon fill="#A80036" points="444.237,229.2391,436.9344,222.6306,439.4866,227.679,434.4382,230.2312,444.237,229.2391" style="stroke: #A80036; stroke-width: 1.0;"/><!--link vendor_account to edit_vender_menu--><path d="M344.026,172.9531 C363.749,172.9531 385.344,172.9531 405.701,172.9531 " fill="none" id="vendor_account-edit_vender_menu" style="stroke: #A80036; stroke-width: 1.0;"/><polygon fill="#A80036" points="410.848,172.9531,401.848,168.9531,405.848,172.9531,401.848,176.9531,410.848,172.9531" style="stroke: #A80036; stroke-width: 1.0;"/><!--link vendor_account to edit_vender_location--><path d="M314.136,159.0501 C348.811,147.3321 398.645,130.4891 436.25,117.7811 " fill="none" id="vendor_account-edit_vender_location" style="stroke: #A80036; stroke-width: 1.0;"/><polygon fill="#A80036" points="441.238,116.0951,431.4309,115.189,436.5015,117.6968,433.9936,122.7674,441.238,116.0951" style="stroke: #A80036; stroke-width: 1.0;"/><!--
@startuml
left to right direction
title USE CASE DIAGRAMS

actor user
rectangle user_flow {
    user - -> (search_vendors): request auth
    user <- - (search_vendors): deny auth
    
    (search_vendors) - -> (vendor_list)
    
    (search_vendors) - -> (map)
    
    (map) - -> (vendor_selected)
    (map) <-> (vendor_list) 
    (vendor_list) - -> (vendor_selected)
    (vendor_selected) - -> (vendor_about)
    (vendor_selected) - -> (vendor_menu)
    (vendor_selected) - -> (vender_location)
    
}


actor vendor
rectangle vendor_flow {
    vendor - -> (vendor_account): request auth
    vendor <- - (vendor_account): deny auth
    (vendor_account) -> (vendor_account): authorize login
    (vendor_account) - -> (edit_vender_about)
    (vendor_account) - -> (edit_vender_menu)
    (vendor_account) - -> (edit_vender_location)
    
}
@enduml

PlantUML version 1.2018.13beta11(Unknown compile time)
(GPL source distribution)
Java Runtime: Java(TM) SE Runtime Environment
JVM: Java HotSpot(TM) 64-Bit Server VM
Java Version: 1.7.0_25-b15
Operating System: Linux
Default Encoding: UTF-8
Language: en
Country: US
--></g></svg>
